<svg width="315" height="73" viewBox="0 0 315 73" fill="none" xmlns="http://www.w3.org/2000/svg">
<path d="M2.994 15V5.2H4.478V9.4H9.224V5.2H10.708V15H9.224V10.618H4.478V15H2.994ZM13.485 6.74C13.205 6.74 12.9717 6.656 12.785 6.488C12.6077 6.31067 12.519 6.09133 12.519 5.83C12.519 5.56867 12.6077 5.354 12.785 5.186C12.9717 5.00867 13.205 4.92 13.485 4.92C13.765 4.92 13.9937 5.00867 14.171 5.186C14.3577 5.354 14.451 5.56867 14.451 5.83C14.451 6.09133 14.3577 6.31067 14.171 6.488C13.9937 6.656 13.765 6.74 13.485 6.74ZM12.743 15V8.056H14.227V15H12.743ZM19.35 15.168C18.678 15.168 18.0854 15.0093 17.572 14.692C17.0587 14.3747 16.6574 13.9407 16.368 13.39C16.0787 12.8393 15.934 12.214 15.934 11.514C15.934 10.814 16.0787 10.1933 16.368 9.652C16.6574 9.10133 17.0587 8.672 17.572 8.364C18.0947 8.04667 18.692 7.888 19.364 7.888C19.9147 7.888 20.3954 7.99533 20.806 8.21C21.226 8.42467 21.5527 8.728 21.786 9.12V4.92H23.27V15H21.94L21.786 13.922C21.562 14.2487 21.254 14.538 20.862 14.79C20.47 15.042 19.966 15.168 19.35 15.168ZM19.616 13.88C20.2507 13.88 20.7687 13.6607 21.17 13.222C21.5807 12.7833 21.786 12.2187 21.786 11.528C21.786 10.828 21.5807 10.2633 21.17 9.834C20.7687 9.39533 20.2507 9.176 19.616 9.176C18.9814 9.176 18.4587 9.39533 18.048 9.834C17.6374 10.2633 17.432 10.828 17.432 11.528C17.432 11.9853 17.5254 12.3913 17.712 12.746C17.8987 13.1007 18.1554 13.3807 18.482 13.586C18.818 13.782 19.196 13.88 19.616 13.88ZM28.3051 15.168C27.6331 15.168 27.0405 15.0093 26.5271 14.692C26.0138 14.3747 25.6125 13.9407 25.3231 13.39C25.0338 12.8393 24.8891 12.214 24.8891 11.514C24.8891 10.814 25.0338 10.1933 25.3231 9.652C25.6125 9.10133 26.0138 8.672 26.5271 8.364C27.0498 8.04667 27.6471 7.888 28.3191 7.888C28.8698 7.888 29.3505 7.99533 29.7611 8.21C30.1811 8.42467 30.5078 8.728 30.7411 9.12V4.92H32.2251V15H30.8951L30.7411 13.922C30.5171 14.2487 30.2091 14.538 29.8171 14.79C29.4251 15.042 28.9211 15.168 28.3051 15.168ZM28.5711 13.88C29.2058 13.88 29.7238 13.6607 30.1251 13.222C30.5358 12.7833 30.7411 12.2187 30.7411 11.528C30.7411 10.828 30.5358 10.2633 30.1251 9.834C29.7238 9.39533 29.2058 9.176 28.5711 9.176C27.9365 9.176 27.4138 9.39533 27.0031 9.834C26.5925 10.2633 26.3871 10.828 26.3871 11.528C26.3871 11.9853 26.4805 12.3913 26.6671 12.746C26.8538 13.1007 27.1105 13.3807 27.4371 13.586C27.7731 13.782 28.1511 13.88 28.5711 13.88ZM37.3442 15.168C36.6629 15.168 36.0562 15.0187 35.5242 14.72C35.0015 14.412 34.5909 13.9873 34.2922 13.446C33.9935 12.9047 33.8442 12.2747 33.8442 11.556C33.8442 10.828 33.9889 10.1887 34.2782 9.638C34.5769 9.08733 34.9875 8.658 35.5102 8.35C36.0422 8.042 36.6582 7.888 37.3582 7.888C38.0395 7.888 38.6322 8.042 39.1362 8.35C39.6402 8.64867 40.0322 9.05 40.3122 9.554C40.5922 10.058 40.7322 10.6133 40.7322 11.22C40.7322 11.3133 40.7275 11.416 40.7182 11.528C40.7182 11.6307 40.7135 11.7473 40.7042 11.878H35.3002C35.3469 12.55 35.5662 13.0633 35.9582 13.418C36.3595 13.7633 36.8215 13.936 37.3442 13.936C37.7642 13.936 38.1142 13.8427 38.3942 13.656C38.6835 13.46 38.8982 13.1987 39.0382 12.872H40.5222C40.3355 13.5253 39.9622 14.0713 39.4022 14.51C38.8515 14.9487 38.1655 15.168 37.3442 15.168ZM37.3442 9.106C36.8495 9.106 36.4109 9.25533 36.0282 9.554C35.6455 9.84333 35.4122 10.282 35.3282 10.87H39.2482C39.2202 10.3287 39.0289 9.89933 38.6742 9.582C38.3195 9.26467 37.8762 9.106 37.3442 9.106ZM42.272 15V8.056H43.588L43.7 9.274C43.9147 8.84467 44.2273 8.50867 44.638 8.266C45.058 8.014 45.5387 7.888 46.08 7.888C46.92 7.888 47.578 8.14933 48.054 8.672C48.5393 9.19467 48.782 9.974 48.782 11.01V15H47.312V11.164C47.312 9.82 46.7613 9.148 45.66 9.148C45.1093 9.148 44.652 9.344 44.288 9.736C43.9333 10.128 43.756 10.688 43.756 11.416V15H42.272Z" fill="#454A4E"/>
<g filter="url(#filter0_d_715_11190)">
<rect x="2" y="26" width="311" height="44" rx="8" fill="white"/>
<path d="M19.328 47.24L19.52 44.792L17.536 46.184L16.976 45.208L19.2 44.232L16.992 43.272L17.52 42.328L19.536 43.72L19.312 41.272H20.4L20.16 43.72L22.16 42.328L22.672 43.256L20.464 44.248L22.688 45.224L22.16 46.168L20.16 44.792L20.384 47.24H19.328ZM26.9686 47.24L27.1606 44.792L25.1766 46.184L24.6166 45.208L26.8406 44.232L24.6326 43.272L25.1606 42.328L27.1766 43.72L26.9526 41.272H28.0406L27.8006 43.72L29.8006 42.328L30.3126 43.256L28.1046 44.248L30.3286 45.224L29.8006 46.168L27.8006 44.792L28.0246 47.24H26.9686ZM34.6093 47.24L34.8013 44.792L32.8173 46.184L32.2573 45.208L34.4813 44.232L32.2733 43.272L32.8013 42.328L34.8173 43.72L34.5933 41.272H35.6813L35.4413 43.72L37.4413 42.328L37.9533 43.256L35.7453 44.248L37.9693 45.224L37.4413 46.168L35.4413 44.792L35.6653 47.24H34.6093ZM42.2499 47.24L42.4419 44.792L40.4579 46.184L39.8979 45.208L42.1219 44.232L39.9139 43.272L40.4419 42.328L42.4579 43.72L42.2339 41.272H43.3219L43.0819 43.72L45.0819 42.328L45.5939 43.256L43.3859 44.248L45.6099 45.224L45.0819 46.168L43.0819 44.792L43.3059 47.24H42.2499ZM49.8905 47.24L50.0825 44.792L48.0985 46.184L47.5385 45.208L49.7625 44.232L47.5545 43.272L48.0825 42.328L50.0985 43.72L49.8745 41.272H50.9625L50.7225 43.72L52.7225 42.328L53.2345 43.256L51.0265 44.248L53.2505 45.224L52.7225 46.168L50.7225 44.792L50.9465 47.24H49.8905ZM57.5311 47.24L57.7231 44.792L55.7391 46.184L55.1791 45.208L57.4031 44.232L55.1951 43.272L55.7231 42.328L57.7391 43.72L57.5151 41.272H58.6031L58.3631 43.72L60.3631 42.328L60.8751 43.256L58.6671 44.248L60.8911 45.224L60.3631 46.168L58.3631 44.792L58.5871 47.24H57.5311ZM65.1718 47.24L65.3638 44.792L63.3798 46.184L62.8198 45.208L65.0438 44.232L62.8358 43.272L63.3638 42.328L65.3798 43.72L65.1558 41.272H66.2438L66.0038 43.72L68.0038 42.328L68.5158 43.256L66.3078 44.248L68.5318 45.224L68.0038 46.168L66.0038 44.792L66.2278 47.24H65.1718ZM72.8124 47.24L73.0044 44.792L71.0204 46.184L70.4604 45.208L72.6844 44.232L70.4764 43.272L71.0044 42.328L73.0204 43.72L72.7964 41.272H73.8844L73.6444 43.72L75.6444 42.328L76.1564 43.256L73.9484 44.248L76.1724 45.224L75.6444 46.168L73.6444 44.792L73.8684 47.24H72.8124ZM80.453 47.24L80.645 44.792L78.661 46.184L78.101 45.208L80.325 44.232L78.117 43.272L78.645 42.328L80.661 43.72L80.437 41.272H81.525L81.285 43.72L83.285 42.328L83.797 43.256L81.589 44.248L83.813 45.224L83.285 46.168L81.285 44.792L81.509 47.24H80.453ZM88.0936 47.24L88.2856 44.792L86.3016 46.184L85.7416 45.208L87.9656 44.232L85.7576 43.272L86.2856 42.328L88.3016 43.72L88.0776 41.272H89.1656L88.9256 43.72L90.9256 42.328L91.4376 43.256L89.2296 44.248L91.4536 45.224L90.9256 46.168L88.9256 44.792L89.1496 47.24H88.0936ZM95.7343 47.24L95.9263 44.792L93.9423 46.184L93.3823 45.208L95.6063 44.232L93.3983 43.272L93.9263 42.328L95.9423 43.72L95.7183 41.272H96.8063L96.5663 43.72L98.5663 42.328L99.0783 43.256L96.8703 44.248L99.0943 45.224L98.5663 46.168L96.5663 44.792L96.7903 47.24H95.7343ZM103.375 47.24L103.567 44.792L101.583 46.184L101.023 45.208L103.247 44.232L101.039 43.272L101.567 42.328L103.583 43.72L103.359 41.272H104.447L104.207 43.72L106.207 42.328L106.719 43.256L104.511 44.248L106.735 45.224L106.207 46.168L104.207 44.792L104.431 47.24H103.375ZM111.016 47.24L111.208 44.792L109.224 46.184L108.664 45.208L110.888 44.232L108.68 43.272L109.208 42.328L111.224 43.72L111 41.272H112.088L111.848 43.72L113.848 42.328L114.36 43.256L112.152 44.248L114.376 45.224L113.848 46.168L111.848 44.792L112.072 47.24H111.016ZM118.656 47.24L118.848 44.792L116.864 46.184L116.304 45.208L118.528 44.232L116.32 43.272L116.848 42.328L118.864 43.72L118.64 41.272H119.728L119.488 43.72L121.488 42.328L122 43.256L119.792 44.248L122.016 45.224L121.488 46.168L119.488 44.792L119.712 47.24H118.656Z" fill="#262C31"/>
<path d="M284.333 41.3333L297.667 54.6666M292.667 49.8633C292.224 50.2592 291.64 50.4999 291 50.4999C289.619 50.4999 288.5 49.3806 288.5 47.9999C288.5 47.3596 288.741 46.7755 289.137 46.3333M297.34 51.0063C297.816 50.5918 298.242 50.1748 298.609 49.789C299.575 48.7723 299.575 47.2276 298.609 46.2108C296.979 44.496 294.18 42.1666 291 42.1666C290.257 42.1666 289.535 42.2937 288.844 42.5105M286.417 43.6694C285.201 44.4453 284.165 45.3972 283.392 46.2108C282.425 47.2276 282.425 48.7723 283.392 49.789C285.021 51.5038 287.82 53.8333 291 53.8333C292.557 53.8333 294.022 53.2749 295.304 52.5036" stroke="#141B20" strokeWidth="1.5" strokeLinecap="round"/>
<rect x="2.5" y="26.5" width="310" height="43" rx="7.5" stroke="#D9DADB"/>
</g>
<defs>
<filter id="filter0_d_715_11190" x="0" y="25" width="315" height="48" filterUnits="userSpaceOnUse" color-interpolation-filters="sRGB">
<feFlood flood-opacity="0" result="BackgroundImageFix"/>
<feColorMatrix in="SourceAlpha" type="matrix" values="0 0 0 0 0 0 0 0 0 0 0 0 0 0 0 0 0 0 127 0" result="hardAlpha"/>
<feOffset dy="1"/>
<feGaussianBlur stdDeviation="1"/>
<feColorMatrix type="matrix" values="0 0 0 0 0.0627451 0 0 0 0 0.0941176 0 0 0 0 0.156863 0 0 0 0.05 0"/>
<feBlend mode="normal" in2="BackgroundImageFix" result="effect1_dropShadow_715_11190"/>
<feBlend mode="normal" in="SourceGraphic" in2="effect1_dropShadow_715_11190" result="shape"/>
</filter>
</defs>
</svg>
