<svg
                    width="18"
                    height="18"
                    viewBox="0 0 18 18"
                    fill="none"
                    xmlns="http://www.w3.org/2000/svg"
                  >
                    <path
                      d="M9.30551 0.140869C4.62447 0.140869 0.840698 3.92464 0.840698 8.60568C0.840698 13.2867 4.62447 17.0705 9.30551 17.0705C13.9866 17.0705 17.7703 13.2867 17.7703 8.60568C17.7703 3.92464 13.9866 0.140869 9.30551 0.140869ZM9.30551 15.3775C5.57253 15.3775 2.53366 12.3387 2.53366 8.60568C2.53366 4.8727 5.57253 1.83383 9.30551 1.83383C13.0385 1.83383 16.0774 4.8727 16.0774 8.60568C16.0774 12.3387 13.0385 15.3775 9.30551 15.3775ZM12.3444 4.37328L9.30551 7.41214L6.26664 4.37328L5.0731 5.56681L8.11197 8.60568L5.0731 11.6446L6.26664 12.8381L9.30551 9.79922L12.3444 12.8381L13.5379 11.6446L10.4991 8.60568L13.5379 5.56681L12.3444 4.37328Z"
                      fill="#D20019"
                      fill-opacity="0.18"
                    />
                  </svg>