<svg width="22" height="22" viewBox="0 0 22 22" fill="none" xmlns="http://www.w3.org/2000/svg">
<path fillRule="evenodd" clipRule="evenodd" d="M6.81483 8.83907V5.66661C6.81483 5.42115 6.61584 5.22217 6.37038 5.22217C6.12492 5.22217 5.92594 5.42115 5.92594 5.66661L5.92594 8.83907C5.24194 9.03253 4.74075 9.66141 4.74075 10.4074V11.5925C4.74075 12.3385 5.24194 12.9674 5.92594 13.1608V16.3333C5.92594 16.5787 6.12492 16.7777 6.37038 16.7777C6.61584 16.7777 6.81483 16.5787 6.81483 16.3333V13.1608C7.49883 12.9674 8.00001 12.3385 8.00001 11.5925V10.4074C8.00001 9.66141 7.49883 9.03253 6.81483 8.83907ZM11.5556 6.4687L11.5556 5.66661C11.5556 5.42115 11.3566 5.22217 11.1111 5.22217C10.8657 5.22217 10.6667 5.42115 10.6667 5.66661L10.6667 6.4687C9.98268 6.66216 9.48149 7.29104 9.48149 8.03698V9.22217C9.48149 10.1222 10.2111 10.8518 11.1111 10.8518C12.0111 10.8518 12.7408 10.1222 12.7408 9.22217V8.03698C12.7408 7.29104 12.2396 6.66216 11.5556 6.4687ZM11.1111 16.7777C10.8657 16.7777 10.6667 16.5787 10.6667 16.3333L10.6667 12.1851C10.6667 11.9397 10.8657 11.7407 11.1111 11.7407C11.3566 11.7407 11.5556 11.9397 11.5556 12.1851L11.5556 16.3333C11.5556 16.5787 11.3566 16.7777 11.1111 16.7777ZM15.8519 10.2592C15.6064 10.2592 15.4074 10.0602 15.4074 9.81476V5.66661C15.4074 5.42115 15.6064 5.22217 15.8519 5.22217C16.0973 5.22217 16.2963 5.42115 16.2963 5.66661L16.2963 9.81476C16.2963 10.0602 16.0973 10.2592 15.8519 10.2592ZM15.8519 11.1481C14.9518 11.1481 14.2222 11.8777 14.2222 12.7777V13.9629C14.2222 14.7089 14.7234 15.3377 15.4074 15.5312V16.3333C15.4074 16.5787 15.6064 16.7777 15.8519 16.7777C16.0973 16.7777 16.2963 16.5787 16.2963 16.3333L16.2963 15.5312C16.9803 15.3377 17.4815 14.7089 17.4815 13.9629V12.7777C17.4815 11.8777 16.7519 11.1481 15.8519 11.1481Z" fill="#272566"/>
</svg>
