<svg width="78" height="52" viewBox="0 0 78 52" fill="none" xmlns="http://www.w3.org/2000/svg">
<path d="M77.1633 46.8132H70.6409L76.5768 41.8534L76.6657 37.8856L71.174 37.7085L64.6516 37.7262L63.9762 41.818L71.1918 41.7294L64.6338 46.7778L64.1717 47.1675L64.7582 50.7633L77.8209 50.905L77.1633 46.8132Z" fill="black"/>
<path d="M44.5511 42.7035L43.5736 42.4201C43.147 42.2961 42.8094 42.1899 42.5606 42.0836C42.294 41.9773 42.2051 41.8887 42.1873 41.871C42.1696 41.8533 42.1696 41.8533 42.1696 41.8002C42.1696 41.7293 42.1873 41.6762 42.2407 41.6053C42.3117 41.5167 42.4539 41.4459 42.6139 41.3928C42.8094 41.3219 43.0582 41.2865 43.3425 41.2865C43.6802 41.2865 44.0357 41.3396 44.3733 41.4282C44.711 41.5167 45.0309 41.6407 45.3153 41.8002C45.333 41.8179 45.3686 41.8356 45.3864 41.8356L46.6127 42.5441L48.7453 39.3911L47.3769 38.5763C47.0036 38.3638 46.5771 38.1689 46.115 38.0095C45.2442 37.7261 44.2845 37.5667 43.2892 37.5667C42.5606 37.5667 41.8674 37.6729 41.2454 37.8855C40.6056 38.0981 40.0547 38.3992 39.5748 38.7889C39.0772 39.1786 38.7217 39.6391 38.4374 40.1882C38.1708 40.7196 38.0286 41.3219 38.0286 41.9419C38.0286 42.9338 38.3485 43.8018 39.0061 44.5103C39.6459 45.2189 40.6234 45.7325 42.0274 46.1222L43.0049 46.3879C43.8046 46.6005 44.1245 46.7599 44.2312 46.8485C44.3911 46.9725 44.3911 47.0611 44.3911 47.1142C44.3911 47.1673 44.3911 47.2559 44.1778 47.3622C43.9113 47.4862 43.538 47.557 43.0937 47.557C42.7205 47.557 42.3117 47.5039 41.903 47.4153C41.4942 47.309 41.1032 47.1673 40.7478 46.9902C40.6767 46.9548 40.6056 46.9193 40.5523 46.8839L39.3082 46.14L37.2822 49.3461L38.5973 50.1255C39.0772 50.4089 39.5926 50.6392 40.1613 50.8163C41.1032 51.1174 42.0985 51.2591 43.0937 51.2591C44.1601 51.2591 45.1198 51.082 45.9195 50.71C46.7548 50.338 47.3946 49.8066 47.8567 49.1158C48.3188 48.425 48.5498 47.6279 48.5498 46.7422C48.5498 45.7148 48.2122 44.8646 47.5368 44.2092C46.9148 43.6246 45.9195 43.111 44.5511 42.7035Z" fill="black"/>
<path d="M9.16627 37.7085L5.70066 43.6956L4.65209 37.7085H0.0312805L2.35946 50.905H6.3227L13.9648 37.7085H9.16627Z" fill="black"/>
<path d="M50.3803 48.6377C50.5936 49.0982 50.8602 49.5056 51.1979 49.8599C51.5889 50.285 51.9799 50.5153 52.122 50.6039C53.5261 51.4364 55.2144 51.3124 55.7121 51.2593C56.2808 51.1884 57.4715 51.0467 58.5201 50.1433C58.5734 50.1079 58.609 50.0548 58.6623 50.0193V51.0467H62.8921V37.8679H58.0225V45.0419C58.0225 45.4138 57.9514 45.7327 57.8092 46.0161C57.667 46.2818 57.4893 46.4944 57.2405 46.6361C56.9917 46.7778 56.6895 46.8663 56.3341 46.8663C55.7831 46.8663 55.3744 46.7246 55.1078 46.4235C54.8412 46.1224 54.699 45.6795 54.699 45.1304V37.8856H49.8294V45.7327C49.8294 46.8309 50.0249 47.8229 50.3803 48.6377Z" fill="black"/>
<path d="M26.4055 42.4201C26.1922 41.4459 25.7834 40.5956 25.197 39.8871C24.6105 39.1786 23.864 38.6117 22.9754 38.2043C22.0868 37.7969 21.0738 37.6021 19.9363 37.6021C18.9055 37.6021 17.9636 37.7615 17.1105 38.098C16.2575 38.4346 15.4932 38.9128 14.8712 39.5151C14.2314 40.1174 13.7338 40.8613 13.3961 41.6939C13.0584 42.5264 12.8807 43.4475 12.8807 44.4394C12.8807 45.8034 13.1828 47.0256 13.7871 48.053C14.3914 49.0804 15.2444 49.8952 16.3108 50.462C17.3771 51.0288 18.639 51.3123 20.0607 51.3123C20.7005 51.3123 21.3759 51.2414 22.069 51.0997C22.7621 50.958 23.4375 50.7808 24.0417 50.5329C24.6638 50.2849 25.197 50.0192 25.5879 49.718L25.7479 49.594L24.2906 46.4411L24.0595 46.6005C23.473 46.9902 22.851 47.2736 22.2112 47.4507C21.5714 47.6279 20.896 47.7341 20.1674 47.7341C19.5453 47.7341 18.9766 47.6279 18.5145 47.433C18.0525 47.2382 17.697 46.9725 17.4304 46.6359C17.2172 46.3702 17.0928 46.0691 17.0572 45.7325H26.4232L26.4588 45.5377C26.6365 44.4394 26.6187 43.3766 26.4055 42.4201ZM17.306 42.5618C17.4127 42.119 17.6437 41.7647 18.0347 41.4813C18.4968 41.1447 19.101 40.9676 19.8297 40.9676C20.5406 40.9676 21.1093 41.1447 21.5003 41.4813C21.838 41.7647 22.0335 42.119 22.1046 42.5618H17.306Z" fill="black"/>
<path d="M37.2288 37.9562C36.358 37.6019 35.3627 37.7259 34.9006 37.7968C34.8295 37.7968 34.7585 37.8145 34.6874 37.8145C34.0476 37.8854 33.1767 37.9739 31.9149 38.9659C31.8616 39.0013 31.8082 39.0544 31.7727 39.0899V37.9916H27.4896V51.1704H32.4303V44.1382C32.4303 43.7662 32.5014 43.4297 32.6435 43.164C32.7857 42.8983 32.9812 42.6857 33.23 42.5263C33.4789 42.3846 33.7988 42.296 34.1542 42.296C35.1672 42.296 36.5535 42.792 36.5535 42.792L36.8556 42.8983L37.4243 38.0094L37.2288 37.9562Z" fill="black"/>
<path d="M56.9561 8.69397L58.3779 0.6875L38.9349 8.23342L19.4742 0.6875L20.896 8.69397L32.7857 13.636L22.5488 17.9935L23.9173 25.7874L38.9349 19.9066L53.9348 25.7874L55.321 17.9935L45.0664 13.636L56.9561 8.69397Z" fill="black"/>
</svg>
