<svg width="341" height="349" viewBox="0 0 341 349" fill="none" xmlns="http://www.w3.org/2000/svg">
<g clip-path="url(#clip0_420_7824)">
<path d="M283.751 17.2366H220.16C220.16 17.2366 226.435 0 236.141 0C245.848 0 248.86 11.8816 248.86 11.8816C248.86 11.8816 255.386 5.43874 260.741 5.43874C266.096 5.43874 270.782 13.9734 270.782 13.9734C270.782 13.9734 278.48 9.37137 283.751 17.2366Z" fill="#EFEFEF"/>
<path opacity="0.5" d="M233.046 51.5426H203.342C203.342 51.5426 209.952 41.9202 215.223 41.9202C220.411 41.9202 222.001 48.363 222.001 48.363C222.001 48.363 225.682 45.3508 229.113 45.9365C232.46 46.3548 233.046 51.5426 233.046 51.5426Z" fill="#EFEFEF"/>
<path opacity="0.5" d="M336.298 50.2875H306.594C306.594 50.2875 313.204 40.6651 318.476 40.6651C323.663 40.6651 325.253 47.1079 325.253 47.1079C325.253 47.1079 328.935 44.0957 332.365 44.6814C335.796 45.1834 336.298 50.2875 336.298 50.2875Z" fill="#EFEFEF"/>
<path d="M62.52 72.5445H4.61832C4.61832 72.5445 12.5672 54.8895 21.0182 53.7181C29.5529 52.714 33.5692 66.9384 33.5692 66.9384C33.5692 66.9384 39.0079 61.918 43.3589 61.918C47.6262 61.918 50.9731 68.5282 50.9731 68.5282C50.9731 68.5282 59.5915 64.0098 62.52 72.5445Z" fill="#EFEFEF"/>
<path opacity="0.5" d="M92.0566 23.6795H52.9813C52.9813 23.6795 59.6751 10.8775 66.9547 10.7101C74.2342 10.5428 78.0832 20.4162 78.0832 20.4162C78.0832 20.4162 89.379 11.2959 92.0566 23.6795Z" fill="#EFEFEF"/>
<path opacity="0.5" d="M137.575 36.8998H98.4994C98.4994 36.8998 105.193 24.0978 112.473 23.9305C119.752 23.7631 123.601 33.6365 123.601 33.6365C123.601 33.6365 134.981 24.5162 137.575 36.8998Z" fill="#EFEFEF"/>
<path d="M52.4793 93.9648H28.7998C26.7917 93.9648 25.2019 95.5545 25.2019 97.5627V127.685H56.1609V97.5627C56.0772 95.5545 54.4874 93.9648 52.4793 93.9648Z" fill="#EFEFEF"/>
<path d="M84.9444 93.9648H61.1813C59.1731 93.9648 57.5833 95.5545 57.5833 97.5627V127.685H88.5423V97.5627C88.5423 95.5545 86.9525 93.9648 84.9444 93.9648Z" fill="#EFEFEF"/>
<path d="M117.326 93.9648H93.5627C91.5546 93.9648 89.9648 95.5545 89.9648 97.5627V127.685H120.924V97.5627C120.924 95.5545 119.334 93.9648 117.326 93.9648Z" fill="#EFEFEF"/>
<path d="M149.791 93.9648H126.028C124.02 93.9648 122.43 95.5545 122.43 97.5627V127.685H153.389V97.5627C153.389 95.5545 151.715 93.9648 149.791 93.9648Z" fill="#EFEFEF"/>
<path d="M182.172 93.9648H158.409C156.401 93.9648 154.811 95.5545 154.811 97.5627V127.685H185.77V97.5627C185.77 95.5545 184.181 93.9648 182.172 93.9648Z" fill="#EFEFEF"/>
<path d="M214.638 93.9648H190.874C188.866 93.9648 187.276 95.5545 187.276 97.5627V127.685H218.235V97.5627C218.235 95.5545 216.562 93.9648 214.638 93.9648Z" fill="#EFEFEF"/>
<path d="M247.019 93.9648H223.256C221.248 93.9648 219.658 95.5545 219.658 97.5627V127.685H250.617V97.5627C250.617 95.5545 249.027 93.9648 247.019 93.9648Z" fill="#EFEFEF"/>
<path d="M279.4 93.9648H255.721C253.713 93.9648 252.123 95.5545 252.123 97.5627V127.685H283.082V97.5627C282.998 95.5545 281.409 93.9648 279.4 93.9648Z" fill="#EFEFEF"/>
<path d="M311.866 93.9648H288.102C286.094 93.9648 284.504 95.5545 284.504 97.5627V127.685H315.463V97.5627C315.463 95.5545 313.79 93.9648 311.866 93.9648Z" fill="#EFEFEF"/>
<path d="M36.2467 107.52H12.4836C10.4754 107.52 8.88564 109.11 8.88564 111.118V139.901H39.8446V111.118C39.8446 109.11 38.2549 107.52 36.2467 107.52Z" fill="#C7C7C7"/>
<path d="M68.7118 107.52H44.9487C42.9405 107.52 41.3508 109.11 41.3508 111.118V139.901H72.3098V111.118C72.3098 109.11 70.72 107.52 68.7118 107.52Z" fill="#C7C7C7"/>
<path d="M101.177 107.52H77.4138C75.4057 107.52 73.8159 109.11 73.8159 111.118V139.901H104.775V111.118C104.775 109.11 103.185 107.52 101.177 107.52Z" fill="#C7C7C7"/>
<path d="M133.642 107.52H109.879C107.871 107.52 106.281 109.11 106.281 111.118V139.901H137.24V111.118C137.24 109.11 135.65 107.52 133.642 107.52Z" fill="#C7C7C7"/>
<path d="M166.107 107.52H142.344C140.336 107.52 138.746 109.11 138.746 111.118V139.901H169.705V111.118C169.705 109.11 168.115 107.52 166.107 107.52Z" fill="#C7C7C7"/>
<path d="M198.572 107.52H174.809C172.801 107.52 171.211 109.11 171.211 111.118V139.901H202.17V111.118C202.17 109.11 200.58 107.52 198.572 107.52Z" fill="#C7C7C7"/>
<path d="M231.037 107.52H207.274C205.266 107.52 203.676 109.11 203.676 111.118V139.901H234.635V111.118C234.635 109.11 233.046 107.52 231.037 107.52Z" fill="#C7C7C7"/>
<path d="M263.503 107.52H239.739C237.731 107.52 236.141 109.11 236.141 111.118V139.901H267.1V111.118C267.1 109.11 265.511 107.52 263.503 107.52Z" fill="#C7C7C7"/>
<path d="M295.968 107.52H272.205C270.196 107.52 268.607 109.11 268.607 111.118V139.901H299.566V111.118C299.566 109.11 297.976 107.52 295.968 107.52Z" fill="#C7C7C7"/>
<path d="M328.433 107.52H304.67C302.661 107.52 301.072 109.11 301.072 111.118V139.901H332.031V111.118C332.031 109.11 330.441 107.52 328.433 107.52Z" fill="#C7C7C7"/>
<path d="M52.4793 120.322H28.7998C26.7917 120.322 25.2019 121.912 25.2019 123.92V154.042H56.1609V123.92C56.0772 121.912 54.4874 120.322 52.4793 120.322Z" fill="#D7D8D9"/>
<path d="M84.9444 120.322H61.1813C59.1731 120.322 57.5833 121.912 57.5833 123.92V154.042H88.5423V123.92C88.5423 121.912 86.9525 120.322 84.9444 120.322Z" fill="#D7D8D9"/>
<path d="M117.326 120.322H93.5627C91.5546 120.322 89.9648 121.912 89.9648 123.92V154.042H120.924V123.92C120.924 121.912 119.334 120.322 117.326 120.322Z" fill="#D7D8D9"/>
<path d="M149.791 120.322H126.028C124.02 120.322 122.43 121.912 122.43 123.92V154.042H153.389V123.92C153.389 121.912 151.715 120.322 149.791 120.322Z" fill="#D7D8D9"/>
<path d="M182.172 120.322H158.409C156.401 120.322 154.811 121.912 154.811 123.92V154.042H185.77V123.92C185.77 121.912 184.181 120.322 182.172 120.322Z" fill="#D7D8D9"/>
<path d="M214.638 120.322H190.874C188.866 120.322 187.276 121.912 187.276 123.92V154.042H218.235V123.92C218.235 121.912 216.562 120.322 214.638 120.322Z" fill="#D7D8D9"/>
<path d="M247.019 120.322H223.256C221.248 120.322 219.658 121.912 219.658 123.92V154.042H250.617V123.92C250.617 121.912 249.027 120.322 247.019 120.322Z" fill="#D7D8D9"/>
<path d="M279.4 120.322H255.721C253.713 120.322 252.123 121.912 252.123 123.92V154.042H283.082V123.92C282.998 121.912 281.409 120.322 279.4 120.322Z" fill="#D7D8D9"/>
<path d="M311.866 120.322H288.102C286.094 120.322 284.504 121.912 284.504 123.92V154.042H315.463V123.92C315.463 121.912 313.79 120.322 311.866 120.322Z" fill="#D7D8D9"/>
<path d="M36.2467 135.467H12.4836C10.4754 135.467 8.88564 137.056 8.88564 139.064V154.042H39.8446V139.064C39.8446 137.056 38.2549 135.467 36.2467 135.467Z" fill="#EFEFEF"/>
<path d="M68.7118 135.467H44.9487C42.9405 135.467 41.3508 137.056 41.3508 139.064V154.042H72.3098V139.064C72.3098 137.056 70.72 135.467 68.7118 135.467Z" fill="#EFEFEF"/>
<path d="M101.177 135.467H77.4138C75.4057 135.467 73.8159 137.056 73.8159 139.064V154.042H104.775V139.064C104.775 137.056 103.185 135.467 101.177 135.467Z" fill="#EFEFEF"/>
<path d="M133.642 135.467H109.879C107.871 135.467 106.281 137.056 106.281 139.064V154.042H137.24V139.064C137.24 137.056 135.65 135.467 133.642 135.467Z" fill="#EFEFEF"/>
<path d="M166.107 135.467H142.344C140.336 135.467 138.746 137.056 138.746 139.064V154.042H169.705V139.064C169.705 137.056 168.115 135.467 166.107 135.467Z" fill="#EFEFEF"/>
<path d="M198.572 135.467H174.809C172.801 135.467 171.211 137.056 171.211 139.064V154.042H202.17V139.064C202.17 137.056 200.58 135.467 198.572 135.467Z" fill="#EFEFEF"/>
<path d="M231.037 135.467H207.274C205.266 135.467 203.676 137.056 203.676 139.064V154.042H234.635V139.064C234.635 137.056 233.046 135.467 231.037 135.467Z" fill="#EFEFEF"/>
<path d="M263.503 135.467H239.739C237.731 135.467 236.141 137.056 236.141 139.064V154.042H267.1V139.064C267.1 137.056 265.511 135.467 263.503 135.467Z" fill="#EFEFEF"/>
<path d="M295.968 135.467H272.205C270.196 135.467 268.607 137.056 268.607 139.064V154.042H299.566V139.064C299.566 137.056 297.976 135.467 295.968 135.467Z" fill="#EFEFEF"/>
<path d="M328.433 135.467H304.67C302.661 135.467 301.072 137.056 301.072 139.064V154.042H332.031V139.064C332.031 137.056 330.441 135.467 328.433 135.467Z" fill="#EFEFEF"/>
<path d="M227.105 154.042H113.812V199.142H227.105V154.042Z" fill="#D7D8D9"/>
<path d="M340.398 154.042H227.105V199.142H340.398V154.042Z" fill="#EFEFEF"/>
<path d="M285.785 189.365C309.423 185.595 327.671 176.804 326.543 169.731C325.415 162.658 305.338 159.98 281.699 163.75C258.061 167.521 239.813 176.311 240.941 183.384C242.069 190.457 262.146 193.135 285.785 189.365Z" fill="#D7D8D9"/>
<path d="M113.812 154.042H0.518341V199.142H113.812V154.042Z" fill="#EFEFEF"/>
<path d="M59.2016 189.357C82.8399 185.586 101.088 176.796 99.9598 169.723C98.8317 162.65 78.7545 159.972 55.1163 163.742C31.4781 167.512 13.23 176.303 14.3581 183.376C15.4863 190.449 35.5634 193.127 59.2016 189.357Z" fill="#D7D8D9"/>
<path d="M170.458 349.084C231.134 349.084 280.321 343.839 280.321 337.369C280.321 330.9 231.134 325.655 170.458 325.655C109.783 325.655 60.5956 330.9 60.5956 337.369C60.5956 343.839 109.783 349.084 170.458 349.084Z" fill="#EFEFEF"/>
<path d="M0.518341 199.142L43.0242 198.891L85.5301 198.807L170.458 198.723L255.47 198.807L297.976 198.891L340.482 199.142L297.976 199.309L255.47 199.393L170.458 199.56L85.5301 199.393L43.0242 199.309L0.518341 199.142Z" fill="#263238"/>
<path d="M147.615 312.686C146.862 312.351 146.444 313.69 147.281 313.941C149.373 314.778 150.377 317.037 149.791 319.212C149.54 320.049 150.879 320.384 151.046 319.547C151.883 316.619 150.46 313.857 147.615 312.686Z" fill="#EFEFEF"/>
<path d="M153.473 311.431C152.636 313.355 152.385 315.28 152.719 317.372C152.887 318.208 154.142 317.874 153.975 317.037C153.724 315.363 153.891 313.69 154.644 312.184C154.979 311.347 153.807 310.594 153.473 311.431Z" fill="#EFEFEF"/>
<path d="M25.3692 241.564C24.6162 241.229 24.1978 242.568 25.0345 242.819C27.1264 243.656 28.1304 245.915 27.5447 248.09C27.2937 248.927 28.6325 249.262 28.7998 248.425C29.6365 245.496 28.2141 242.735 25.3692 241.564Z" fill="#EFEFEF"/>
<path d="M31.2263 240.309C30.3896 242.233 30.1386 244.158 30.4733 246.25C30.6406 247.086 31.8957 246.752 31.7284 245.915C31.4773 244.241 31.6447 242.568 32.3978 241.062C32.7324 240.225 31.561 239.556 31.2263 240.309Z" fill="#EFEFEF"/>
<path d="M252.625 291.935C251.872 291.517 251.203 292.688 251.956 293.106C253.462 293.943 254.299 295.449 254.131 297.123C254.047 297.959 255.386 297.959 255.47 297.123C255.637 295.031 254.466 292.939 252.625 291.935Z" fill="#EFEFEF"/>
<path d="M256.558 289.843C256.139 289.09 254.968 289.76 255.386 290.513C256.307 292.27 256.725 294.194 256.641 296.202C256.558 297.039 257.896 297.039 257.98 296.202C258.147 294.027 257.645 291.851 256.558 289.843Z" fill="#EFEFEF"/>
<path d="M259.654 290.764C258.901 292.102 258.65 293.525 258.817 295.031C258.901 295.868 260.239 295.868 260.156 295.031C259.988 293.776 260.239 292.521 260.825 291.433C261.243 290.68 260.072 290.011 259.654 290.764Z" fill="#EFEFEF"/>
<path d="M80.8444 255.203C80.0914 254.784 79.422 255.956 80.175 256.374C81.6811 257.211 82.5179 258.717 82.3505 260.39C82.2669 261.227 83.6056 261.227 83.6893 260.39C83.9403 258.299 82.7689 256.207 80.8444 255.203Z" fill="#EFEFEF"/>
<path d="M84.8607 253.111C84.4423 252.358 83.2709 253.027 83.6893 253.78C84.6097 255.537 85.0281 257.462 84.9444 259.47C84.8607 260.307 86.1995 260.307 86.2831 259.47C86.4505 257.294 85.9485 255.119 84.8607 253.111Z" fill="#EFEFEF"/>
<path d="M87.9566 254.031C87.2036 255.37 86.9525 256.792 87.1199 258.298C87.2036 259.135 88.5423 259.135 88.4586 258.298C88.2913 257.043 88.5423 255.788 89.128 254.701C89.5464 253.947 88.375 253.278 87.9566 254.031Z" fill="#EFEFEF"/>
<path d="M73.8995 306.243C73.1465 305.825 72.4771 306.996 73.2302 307.414C75.071 308.502 75.9914 310.343 75.9077 312.435C75.824 313.272 77.1628 313.272 77.2465 312.435C77.4138 309.925 76.075 307.498 73.8995 306.243Z" fill="#EFEFEF"/>
<path d="M78.7526 309.423C78.5852 310.343 78.4179 311.18 78.2505 312.1C78.0832 312.937 79.422 313.272 79.5056 312.435C79.673 311.514 79.8403 310.678 80.0077 309.757C80.2587 309.004 78.9199 308.586 78.7526 309.423Z" fill="#EFEFEF"/>
<path d="M164.936 259.972C164.183 259.554 163.513 260.725 164.266 261.143C166.107 262.231 167.028 264.072 166.944 266.164C166.86 267 168.199 267 168.283 266.164C168.45 263.654 167.195 261.311 164.936 259.972Z" fill="#EFEFEF"/>
<path d="M169.872 263.235C169.705 264.156 169.538 264.992 169.37 265.913C169.203 266.749 170.542 267.084 170.626 266.247C170.793 265.327 170.96 264.49 171.128 263.57C171.295 262.733 170.04 262.398 169.872 263.235Z" fill="#EFEFEF"/>
<path d="M116.154 214.789C115.401 214.37 114.732 215.542 115.485 215.96C117.326 217.048 118.246 218.888 118.163 220.98C118.079 221.817 119.418 221.817 119.501 220.98C119.585 218.47 118.33 216.127 116.154 214.789Z" fill="#EFEFEF"/>
<path d="M121.007 218.052C120.84 218.972 120.673 219.809 120.505 220.729C120.338 221.566 121.677 221.901 121.76 221.064C121.928 220.144 122.095 219.307 122.263 218.386C122.43 217.55 121.175 217.131 121.007 218.052Z" fill="#EFEFEF"/>
<path d="M9.88972 288.253C9.22033 287.668 8.29993 288.672 8.96931 289.174C10.5591 290.513 11.3958 292.353 11.3122 294.445C11.2285 295.282 12.5673 295.282 12.6509 294.445C12.7346 292.019 11.7305 289.76 9.88972 288.253Z" fill="#EFEFEF"/>
<path d="M301.574 226.168C300.904 225.582 299.984 226.586 300.653 227.088C302.243 228.427 303.08 230.268 302.996 232.36C302.912 233.197 304.251 233.197 304.335 232.36C304.419 229.933 303.415 227.674 301.574 226.168Z" fill="#EFEFEF"/>
<path d="M331.027 259.386C331.696 258.801 332.616 259.805 331.947 260.307C330.357 261.645 329.52 263.486 329.604 265.578C329.688 266.415 328.349 266.415 328.265 265.578C328.182 263.152 329.186 260.892 331.027 259.386Z" fill="#EFEFEF"/>
<path d="M320.735 303.482C318.894 305.406 318.141 307.917 318.643 310.594C318.81 311.431 320.065 311.096 319.898 310.259C319.48 308.168 320.149 306.076 321.655 304.486C322.325 303.817 321.321 302.896 320.735 303.482Z" fill="#EFEFEF"/>
<path d="M315.882 304.235V308.753C315.882 309.59 317.221 309.59 317.221 308.753V304.235C317.221 303.398 315.882 303.398 315.882 304.235Z" fill="#EFEFEF"/>
<path d="M322.994 305.657C321.739 306.494 321.07 307.833 321.07 309.255C321.07 310.092 322.408 310.092 322.408 309.255C322.325 308.251 322.827 307.331 323.663 306.745C324.416 306.327 323.747 305.155 322.994 305.657Z" fill="#EFEFEF"/>
<path d="M245.597 233.782C243.756 235.707 243.003 238.217 243.505 240.894C243.672 241.731 244.927 241.397 244.76 240.56C244.341 238.468 245.011 236.376 246.517 234.786C247.186 234.117 246.182 233.113 245.597 233.782Z" fill="#EFEFEF"/>
<path d="M240.743 234.452V238.97C240.743 239.807 242.082 239.807 242.082 238.97V234.452C242.082 233.615 240.743 233.615 240.743 234.452Z" fill="#EFEFEF"/>
<path d="M247.856 235.874C246.601 236.711 245.931 238.05 245.931 239.472C245.931 240.309 247.27 240.309 247.27 239.472C247.186 238.468 247.688 237.548 248.525 236.962C249.278 236.544 248.609 235.456 247.856 235.874Z" fill="#EFEFEF"/>
<path d="M288.772 68.2772H52.2282L34.6569 211.107L61.5996 202.154H279.484L306.343 211.107L288.772 68.2772ZM283.751 71.5404L265.009 93.7974H75.9077L57.165 71.5404H283.751ZM38.5896 206.338L54.8221 73.7996L73.4812 95.9729L59.7588 199.309L38.5896 206.338ZM63.1057 198.891L76.6608 97.0607H264.423L277.894 198.807H63.1057V198.891ZM267.519 95.9729L286.178 73.7996L302.494 206.338L281.241 199.309L267.519 95.9729Z" fill="#E8FF91"/>
<path d="M265.092 102.75H75.9077L75.9914 101.997H265.009L265.092 102.75Z" fill="#263238"/>
<path d="M266.18 111.201H74.7363L74.82 110.448H266.096L266.18 111.201Z" fill="#263238"/>
<path d="M267.351 119.652H73.6485L73.7322 118.899H267.184L267.351 119.652Z" fill="#263238"/>
<path d="M268.439 128.103H72.4771L72.6445 127.35H268.356L268.439 128.103Z" fill="#263238"/>
<path d="M269.611 136.554H71.3894L71.473 135.801H269.443L269.611 136.554Z" fill="#263238"/>
<path d="M270.698 145.005H70.3016L70.3853 144.169H270.615L270.698 145.005Z" fill="#263238"/>
<path d="M271.786 153.456H69.1302L69.2975 152.62H271.702L271.786 153.456Z" fill="#263238"/>
<path d="M272.958 161.907H68.0424L68.1261 161.07H272.79L272.958 161.907Z" fill="#263238"/>
<path d="M274.045 170.358H66.9547L67.0384 169.521H273.962L274.045 170.358Z" fill="#263238"/>
<path d="M275.133 178.726H65.7833L65.9506 177.972H275.049L275.133 178.726Z" fill="#263238"/>
<path d="M276.304 187.176H64.6955L64.7792 186.423H276.137L276.304 187.176Z" fill="#263238"/>
<path d="M277.392 195.627H63.6078L63.6914 194.874H277.309L277.392 195.627Z" fill="#263238"/>
<path d="M214.052 97.0607H213.299V198.807H214.052V97.0607Z" fill="#263238"/>
<path d="M205.601 97.0607H204.848V198.807H205.601V97.0607Z" fill="#263238"/>
<path d="M222.503 97.0607H221.75V198.807H222.503V97.0607Z" fill="#263238"/>
<path d="M230.954 97.0607H230.201V198.807H230.954V97.0607Z" fill="#263238"/>
<path d="M239.321 97.0607H238.568V198.807H239.321V97.0607Z" fill="#263238"/>
<path d="M247.772 97.0607H247.019V198.807H247.772V97.0607Z" fill="#263238"/>
<path d="M256.223 97.0607H255.47V198.807H256.223V97.0607Z" fill="#263238"/>
<path d="M264.758 99.9892V198.891H263.921V97.0607H264.339L264.758 99.9892Z" fill="#263238"/>
<path d="M273.125 163.664V198.891H272.372V157.724L272.79 161.07L272.958 161.907L273.125 163.664Z" fill="#263238"/>
<path d="M197.15 97.0607H196.397V198.807H197.15V97.0607Z" fill="#263238"/>
<path d="M188.699 97.0607H187.946V198.807H188.699V97.0607Z" fill="#263238"/>
<path d="M180.248 97.0607H179.495V198.807H180.248V97.0607Z" fill="#263238"/>
<path d="M171.881 97.0607H171.128V198.807H171.881V97.0607Z" fill="#263238"/>
<path d="M163.43 97.0607H162.677V198.807H163.43V97.0607Z" fill="#263238"/>
<path d="M154.979 97.0607H154.226V198.807H154.979V97.0607Z" fill="#263238"/>
<path d="M146.528 97.0607H145.775V198.807H146.528V97.0607Z" fill="#263238"/>
<path d="M138.077 97.0607H137.324V198.807H138.077V97.0607Z" fill="#263238"/>
<path d="M129.626 97.0607H128.873V198.807H129.626V97.0607Z" fill="#263238"/>
<path d="M121.175 97.0607H120.422V198.807H121.175V97.0607Z" fill="#263238"/>
<path d="M112.724 97.0607H111.971V198.807H112.724V97.0607Z" fill="#263238"/>
<path d="M104.273 97.0607H103.52V198.807H104.273V97.0607Z" fill="#263238"/>
<path d="M95.9055 97.0607H95.1525V198.807H95.9055V97.0607Z" fill="#263238"/>
<path d="M87.4546 97.0607H86.7015V198.807H87.4546V97.0607Z" fill="#263238"/>
<path d="M79.0036 97.0607H78.2505V198.807H79.0036V97.0607Z" fill="#263238"/>
<path d="M70.5526 142.662V198.891H69.7996V148.603L70.3016 145.005L70.3853 144.169L70.5526 142.662Z" fill="#263238"/>
<path d="M73.4812 95.9729V96.1403L71.9751 94.6341L71.473 94.1321L66.7037 89.2791L66.2016 88.777L61.4323 83.924L60.9302 83.422L56.1609 78.5689L55.6588 78.0669L54.4874 76.8118L54.5711 75.8914L55.7425 77.0628L56.2446 77.5648L60.9302 82.4179L61.4323 82.9199L66.2016 87.8566L66.7037 88.3587L69.5486 91.2872L71.473 93.5464L71.9751 94.2158L73.4812 95.9729Z" fill="#263238"/>
<path d="M72.4771 103.587L72.3934 104.34L71.8077 103.838L71.3057 103.336L66.5363 99.0688L66.0343 98.6504L61.2649 94.3831L60.7629 93.9648L55.9935 89.6974L55.4915 89.1954L53.1487 87.1872L53.316 86.1832L55.4915 88.1913L55.9935 88.6097L60.7629 92.9607L61.2649 93.379L66.0343 97.73L66.5363 98.1484L71.3057 102.499L71.8077 102.918L72.4771 103.587Z" fill="#263238"/>
<path d="M71.3894 111.871L71.222 112.708L71.1383 112.624L66.369 108.859L65.8669 108.524L61.0976 104.842L60.5956 104.424L55.8262 100.742L55.3242 100.408L51.8936 97.7301L51.9772 96.726L55.3242 99.3198L55.8262 99.7382L60.5956 103.503L61.0976 103.838L65.8669 107.603L66.369 107.938L71.1383 111.703L71.3894 111.871Z" fill="#263238"/>
<path d="M70.2179 120.405L70.1343 121.242L66.2016 118.732L65.6996 118.397L60.9302 115.301L60.4282 114.967L55.5752 111.871L55.0731 111.536L50.5548 108.608L50.7221 107.603L55.1568 110.448L55.6588 110.783L60.4282 113.963L60.9302 114.297L65.6996 117.477L66.2016 117.812L70.2179 120.405Z" fill="#263238"/>
<path d="M69.0465 129.191L68.9629 130.028L66.0343 128.522L65.5323 128.271L60.6792 125.761L60.1772 125.426L55.4078 122.999L54.9058 122.665L50.1364 120.154L49.6344 119.903L49.216 119.736L49.2997 118.648L49.6344 118.816L50.1364 119.067L54.9058 121.661L55.4078 121.912L60.2609 124.505L60.7629 124.756L65.5323 127.35L66.0343 127.601L69.0465 129.191Z" fill="#263238"/>
<path d="M67.8751 138.228L67.7914 139.065L65.8669 138.311L65.3649 138.06L60.5119 136.136L60.0098 135.969L55.2405 134.044L54.7384 133.877L49.8854 131.952L49.3834 131.701L47.7936 131.116L47.9609 130.028L49.3834 130.614L49.8854 130.781L54.7384 132.789L55.2405 133.04L60.0098 134.965L60.5119 135.216L65.3649 137.14L65.8669 137.391L67.8751 138.228Z" fill="#263238"/>
<path d="M66.62 147.432L66.5363 148.352L65.6996 148.101L65.1976 147.934L60.3445 146.595L59.8425 146.511L54.9895 145.173L54.4874 145.005L49.7181 143.667L49.216 143.499L46.3711 142.746L46.5385 141.658L49.216 142.411L49.7181 142.579L54.5711 143.918L55.0731 144.085L59.8425 145.507L60.3445 145.675L65.1976 147.013L65.6996 147.181L66.62 147.432Z" fill="#263238"/>
<path d="M65.3649 156.971L65.2812 157.891L65.0302 157.807L60.1772 157.054L59.6751 156.971L54.8221 156.217L54.3201 156.134L49.467 155.381L48.965 155.297L44.865 154.711L45.0324 153.54L48.965 154.209L49.5507 154.293L54.3201 155.13L54.8221 155.213L59.6751 155.966L60.1772 156.05L65.0302 156.887L65.3649 156.971Z" fill="#263238"/>
<path d="M64.1098 166.76L63.9425 167.681L60.0098 167.513H59.5078L54.6548 167.346H54.1527L49.2997 167.179L48.7977 167.095L43.9446 166.928H43.4426H43.3589L43.4426 166.509L43.5263 165.756L43.9446 165.84L48.7977 166.007H49.2997L54.1527 166.258H54.6548L59.5078 166.509H60.0098L64.1098 166.76Z" fill="#263238"/>
<path d="M62.771 176.801L62.6874 177.721L59.7588 177.972H59.2568L54.4037 178.391L53.9017 178.474L49.0487 178.893H48.5466L43.6936 179.311L43.1916 179.395L41.8528 179.479L42.0201 178.307L43.1916 178.223H43.6936L48.6303 177.805H49.0487L53.9854 177.387H54.4874L59.3405 177.052L59.8425 176.968L62.771 176.801Z" fill="#263238"/>
<path d="M61.4323 187.093L61.2649 188.097L59.5915 188.432L59.0894 188.515L54.2364 189.519L53.7344 189.603L48.8813 190.607L48.3793 190.774L43.5263 191.695L43.0242 191.862L40.263 192.364L40.4304 191.193L43.0242 190.691L43.5263 190.607L48.3793 189.603L48.8813 189.519L53.7344 188.599L54.2364 188.515L59.0894 187.511L59.5915 187.427L61.4323 187.093Z" fill="#263238"/>
<path d="M60.0098 197.719L59.8425 198.723L59.4241 198.891L58.9221 199.058L54.0691 200.648L53.567 200.815L48.6303 202.405L48.1283 202.572L43.2752 204.162L42.7732 204.246L38.6732 205.668L38.7569 204.413L42.7732 203.074L43.2752 202.991L48.1283 201.401L48.714 201.234L53.567 199.727L54.0691 199.56L58.9221 198.054L59.4241 197.887L60.0098 197.719Z" fill="#263238"/>
<path d="M71.9751 94.2158V94.6342L71.8077 102.918V103.838L71.7241 109.361L71.3894 111.871L71.222 112.708L71.1383 113.712V112.624V111.703L71.3057 103.336V102.499L71.473 94.1321V93.5464L71.9751 94.2158Z" fill="#263238"/>
<path d="M66.2016 87.3546L66.7037 87.9403V88.3587V89.2791L66.5363 98.1484V99.0688L66.369 107.938V108.859L66.2016 117.812V118.732L66.0343 127.601V128.522L65.8669 137.391V138.311L65.6996 147.181V148.101L65.5322 155.966L65.3649 156.971L65.2812 157.891L64.9465 160.401L65.0302 157.807V156.887L65.1976 147.934V147.013L65.3649 138.06V137.14L65.5322 128.271V127.35L65.6996 118.397V117.477L65.8669 108.524V107.603L66.0343 98.6505V97.7301L66.2016 88.7771V87.8567V87.3546Z" fill="#263238"/>
<path d="M61.5159 81.7485L61.4323 82.9199V83.924L61.2649 93.3791V94.3831L61.0976 103.838V104.842L60.9302 114.297V115.301L60.7629 124.756L60.6792 125.761L60.5119 135.216V136.136L60.3445 145.675V146.595L60.1772 156.05V157.054L60.0098 166.509V167.513L59.8425 176.968L59.7588 177.972L59.5915 187.427V188.432L59.4241 197.887V198.891V199.393L58.9221 199.56V199.058V198.054L59.0894 188.515V187.511L59.2568 177.972L59.3405 177.052L59.5078 167.513V166.509L59.6751 156.971V155.966L59.8425 146.511V145.507L60.0098 135.969V134.965L60.1772 125.426L60.2609 124.505L60.4282 114.967V113.963L60.5955 104.424V103.503L60.7629 93.9648V92.9607L60.9302 83.422V82.4179L61.0139 81.0791L61.5159 81.7485Z" fill="#263238"/>
<path d="M56.2446 75.473V77.5649L56.1609 78.5689L55.9935 88.6097V89.6974L55.8262 99.7382V100.742L55.6588 110.783L55.5752 111.871L55.4078 121.912V122.999L55.2405 133.04V134.044L55.0731 144.085L54.9895 145.173L54.8221 155.213V156.217L54.6548 166.258V167.346L54.4874 177.387L54.4037 178.391L54.2364 188.515V189.519L54.0691 199.56V200.648V201.15L53.4833 201.317L53.567 200.815V199.727L53.7344 189.603V188.599L53.9017 178.474L53.9854 177.387L54.1527 167.346V166.258L54.3201 156.134V155.13L54.4874 145.005L54.5711 143.918L54.7384 133.877V132.789L54.9058 122.665V121.661L55.0731 111.536L55.1568 110.448L55.3242 100.408V99.3198L55.4915 89.1954V88.1913L55.6588 78.0669L55.7425 77.0628V74.8873L56.2446 75.473Z" fill="#263238"/>
<path d="M49.7181 115.72L50.3038 110.95L50.1364 119.067V120.154L49.8854 130.781V131.952L49.7181 142.579V143.667L49.5507 154.293L49.467 155.381L49.2997 166.007V167.179L49.0487 177.805V178.893L48.8813 189.519V190.607L48.714 201.234L48.6303 202.405V202.991L48.1283 203.158V202.572V201.401L48.3793 190.774V189.603L48.5466 178.893L48.6303 177.805L48.7977 167.095V166.007L48.965 155.297V154.209L49.216 143.499V142.411L49.3834 131.701V130.614L49.6344 119.903V118.816L49.7181 115.72Z" fill="#263238"/>
<path d="M44.0283 161.824L43.9446 165.84V166.928L43.6936 178.223V179.311L43.5263 190.607V191.695L43.2752 202.991V204.162V204.748L42.7732 204.915V204.246V203.074L43.0242 191.862V190.691L43.1916 179.395V178.223L43.4426 166.928V166.509L43.5263 165.756L44.0283 161.824Z" fill="#263238"/>
<path d="M267.519 95.9729V96.1403L269.025 94.6341L269.527 94.1321L274.296 89.2791L274.798 88.777L279.568 83.924L280.07 83.422L284.755 78.5689L285.258 78.0669L286.513 76.8118L286.429 75.8914L285.258 77.0628L284.755 77.5648L279.986 82.4179L279.484 82.9199L274.798 87.8566L274.296 88.3587L271.451 91.2872L269.527 93.5464L269.025 94.2158L267.519 95.9729Z" fill="#263238"/>
<path d="M268.523 103.587L268.607 104.34L269.192 103.838L269.694 103.336L274.464 99.0688L274.966 98.6504L279.735 94.3831L280.237 93.9648L285.006 89.6974L285.509 89.1954L287.768 87.1872L287.684 86.1832L285.425 88.1913L285.006 88.6097L280.237 92.9607L279.735 93.379L274.966 97.73L274.464 98.1484L269.694 102.499L269.192 102.918L268.523 103.587Z" fill="#263238"/>
<path d="M269.611 111.871L269.694 112.708L269.862 112.624L274.631 108.859L275.133 108.524L279.902 104.842L280.404 104.424L285.174 100.742L285.676 100.408L289.106 97.7301L288.939 96.726L285.676 99.3198L285.174 99.7382L280.404 103.503L279.902 103.838L275.133 107.603L274.631 107.938L269.862 111.703L269.611 111.871Z" fill="#263238"/>
<path d="M270.782 120.405L270.866 121.242L274.798 118.732L275.3 118.397L280.07 115.301L280.572 114.967L285.341 111.871L285.843 111.536L290.445 108.608L290.278 107.603L285.843 110.448L285.341 110.783L280.572 113.963L280.07 114.297L275.3 117.477L274.798 117.812L270.782 120.405Z" fill="#263238"/>
<path d="M271.954 129.191L272.037 130.028L274.966 128.522L275.468 128.271L280.237 125.761L280.739 125.426L285.592 122.999L286.094 122.665L290.864 120.154L291.366 119.903L291.784 119.736L291.617 118.648L291.366 118.816L290.864 119.067L286.011 121.661L285.592 121.912L280.739 124.505L280.237 124.756L275.468 127.35L274.966 127.601L271.954 129.191Z" fill="#263238"/>
<path d="M273.125 138.228L273.209 139.065L275.133 138.311L275.635 138.06L280.488 136.136L280.99 135.969L285.76 134.044L286.262 133.877L291.115 131.952L291.617 131.701L293.206 131.116L293.039 130.028L291.533 130.614L291.031 130.781L286.262 132.789L285.76 133.04L280.907 134.965L280.404 135.216L275.635 137.14L275.133 137.391L273.125 138.228Z" fill="#263238"/>
<path d="M274.296 147.432L274.464 148.352L275.3 148.101L275.802 147.934L280.655 146.595L281.158 146.511L285.927 145.173L286.429 145.005L291.282 143.667L291.784 143.499L294.629 142.746L294.462 141.658L291.784 142.411L291.282 142.579L286.429 143.918L285.927 144.085L281.158 145.507L280.655 145.675L275.802 147.013L275.3 147.181L274.296 147.432Z" fill="#263238"/>
<path d="M275.551 156.971L275.719 157.891L275.97 157.807L280.823 157.054L281.325 156.971L286.178 156.217L286.68 156.134L291.533 155.381L292.035 155.297L296.051 154.711L295.968 153.54L291.951 154.209L291.449 154.293L286.68 155.13L286.178 155.213L281.325 155.966L280.823 156.05L275.97 156.887L275.551 156.971Z" fill="#263238"/>
<path d="M276.89 166.76L276.974 167.681L280.99 167.513H281.492L286.345 167.346H286.847L291.7 167.179L292.202 167.095L297.055 166.928H297.557V166.509L297.474 165.756L297.055 165.84L292.202 166.007H291.7L286.847 166.258H286.345L281.492 166.509H280.99L276.89 166.76Z" fill="#263238"/>
<path d="M278.229 176.801L278.313 177.721L281.158 177.972H281.66L286.513 178.391L287.015 178.474L291.868 178.893H292.453L297.306 179.311L297.725 179.395L299.147 179.479L298.98 178.307L297.725 178.223H297.223L292.37 177.805H291.868L287.015 177.387H286.513L281.66 177.052L281.158 176.968L278.229 176.801Z" fill="#263238"/>
<path d="M279.568 187.093L279.735 188.097L281.409 188.432L281.911 188.515L286.764 189.519L287.266 189.603L292.119 190.607L292.621 190.774L297.474 191.695L297.976 191.862L300.737 192.364L300.57 191.193L297.976 190.691L297.474 190.607L292.621 189.603L292.119 189.519L287.266 188.599L286.764 188.515L281.911 187.511L281.325 187.427L279.568 187.093Z" fill="#263238"/>
<path d="M280.99 197.719L281.158 198.723L281.576 198.891L282.078 199.058L286.931 200.648L287.433 200.815L292.286 202.405L292.872 202.572L297.725 204.162L298.227 204.246L302.327 205.668L302.159 204.413L298.227 203.074L297.725 202.991L292.788 201.401L292.286 201.234L287.433 199.727L286.931 199.56L282.078 198.054L281.576 197.887L280.99 197.719Z" fill="#263238"/>
<path d="M269.025 94.2158V94.6342L269.192 102.918V103.838L269.276 109.361L269.611 111.871L269.694 112.708L269.862 113.712V112.624V111.703L269.694 103.336V102.499L269.527 94.1321V93.5464L269.025 94.2158Z" fill="#263238"/>
<path d="M274.798 87.3546L274.296 87.9403V88.3587V89.2791L274.464 98.1484V99.0688L274.631 107.938V108.859L274.798 117.812V118.732L274.966 127.601V128.522L275.133 137.391V138.311L275.3 147.181V148.101L275.468 155.966L275.551 156.971L275.719 157.891L276.053 160.401L275.97 157.807V156.887L275.802 147.934V147.013L275.635 138.06V137.14L275.468 128.271V127.35L275.3 118.397V117.477L275.133 108.524V107.603L274.966 98.6505V97.7301L274.798 88.7771V87.8567V87.3546Z" fill="#263238"/>
<path d="M279.484 81.7485V82.9199L279.568 83.924L279.735 93.3791V94.3831L279.902 103.838V104.842L280.07 114.297V115.301L280.237 124.756V125.761L280.404 135.216L280.488 136.136L280.655 145.675V146.595L280.823 156.05V157.054L280.99 166.509V167.513L281.158 176.968V177.972L281.325 187.427L281.409 188.432L281.576 197.887V198.891V199.393L282.078 199.56V199.058V198.054L281.911 188.515V187.511L281.66 177.972V177.052L281.492 167.513V166.509L281.325 156.971V155.966L281.158 146.511V145.507L280.99 135.969L280.907 134.965L280.739 125.426V124.505L280.572 114.967V113.963L280.404 104.424V103.503L280.237 93.9648V92.9607L280.07 83.422L279.986 82.4179V81.0791L279.484 81.7485Z" fill="#263238"/>
<path d="M284.755 75.473V77.5649V78.5689L285.006 88.6097V89.6974L285.174 99.7382V100.742L285.341 110.783V111.871L285.592 121.912V122.999L285.76 133.04V134.044L285.927 144.085V145.173L286.178 155.213V156.217L286.345 166.258V167.346L286.513 177.387V178.391L286.764 188.515V189.519L286.931 199.56V200.648V201.15L287.433 201.317V200.815V199.727L287.266 189.603V188.599L287.015 178.474V177.387L286.847 167.346V166.258L286.68 156.134V155.13L286.429 145.005V143.918L286.262 133.877V132.789L286.094 122.665L286.011 121.661L285.843 111.536V110.448L285.676 100.408V99.3198L285.509 89.1954L285.425 88.1913L285.258 78.0669V77.0628V74.8873L284.755 75.473Z" fill="#263238"/>
<path d="M291.282 115.72L290.696 110.95L290.864 119.067V120.154L291.031 130.781L291.115 131.952L291.282 142.579V143.667L291.449 154.293L291.533 155.381L291.7 166.007V167.179L291.868 177.805V178.893L292.119 189.519V190.607L292.286 201.234V202.405L292.37 202.991L292.872 203.158V202.572L292.788 201.401L292.621 190.774V189.603L292.453 178.893L292.37 177.805L292.202 167.095V166.007L292.035 155.297L291.951 154.209L291.784 143.499V142.411L291.617 131.701L291.533 130.614L291.366 119.903V118.816L291.282 115.72Z" fill="#263238"/>
<path d="M296.972 161.824L297.055 165.84V166.928L297.223 178.223L297.306 179.311L297.474 190.607V191.695L297.725 202.991V204.162V204.748L298.227 204.915V204.246V203.074L297.976 191.862V190.691L297.725 179.395V178.223L297.557 166.928V166.509L297.474 165.756L296.972 161.824Z" fill="#263238"/>
<path d="M279.986 75.9751L279.568 76.4771H61.3486L60.9302 75.9751H279.986Z" fill="#263238"/>
<path d="M275.468 81.3301L275.049 81.8322H65.8669L65.4486 81.3301H275.468Z" fill="#263238"/>
<path d="M270.949 86.7689L270.531 87.2709H70.3853L69.9669 86.7689H270.949Z" fill="#263238"/>
<path d="M266.431 92.124L266.013 92.626H74.9036L74.4853 92.124H266.431Z" fill="#263238"/>
<path d="M222.335 71.5404L220.244 75.9751L219.993 76.4771L217.733 81.3301L217.482 81.8322L215.223 86.7689L214.972 87.2709L212.629 92.124L212.462 92.626L211.876 93.7974H211.123L211.625 92.626L211.876 92.124L214.135 87.2709L214.386 86.7689L216.562 81.8322L216.813 81.3301L219.072 76.4771L219.323 75.9751L221.331 71.5404H222.335Z" fill="#263238"/>
<path d="M212.211 71.5404L210.454 75.9751L210.287 76.4771L208.362 81.3301L208.195 81.8322L206.354 86.7689L206.103 87.2709L204.262 92.124L204.011 92.626L203.593 93.7974H202.84L203.258 92.626L203.425 92.124L205.266 87.2709L205.517 86.7689L207.358 81.8322L207.525 81.3301L209.366 76.4771L209.533 75.9751L211.291 71.5404H212.211Z" fill="#263238"/>
<path d="M232.376 71.5404L229.95 75.9751L229.699 76.4771L227.021 81.3301L226.686 81.8322L224.009 86.7689L223.758 87.2709L221.08 92.124L220.829 92.626L220.16 93.7974H219.407L219.993 92.626L220.327 92.124L222.921 87.2709L223.172 86.7689L225.85 81.8322L226.101 81.3301L228.778 76.4771L229.029 75.9751L231.456 71.5404H232.376Z" fill="#263238"/>
<path d="M242.501 71.5404L239.739 75.9751L239.405 76.4771L236.309 81.3301L235.974 81.8322L232.878 86.7689L232.627 87.2709L229.531 92.124L229.197 92.626L228.444 93.7974H227.69L228.444 92.626L228.695 92.124L231.79 87.2709L232.125 86.7689L235.137 81.8322L235.472 81.3301L238.484 76.4771L238.819 75.9751L241.58 71.5404H242.501Z" fill="#263238"/>
<path d="M252.625 71.5404L249.445 75.9751L249.111 76.4771L245.596 81.3301L245.262 81.8322L241.748 86.7689L241.413 87.2709L237.982 92.124L237.564 92.626L236.727 93.7974H235.974L236.811 92.626L237.146 92.124L240.576 87.2709L240.911 86.7689L244.341 81.8322L244.76 81.3301L248.19 76.4771L248.525 75.9751L251.705 71.5404H252.625Z" fill="#263238"/>
<path d="M262.749 71.5404L259.152 75.9751L258.817 76.4771L254.884 81.3301L254.55 81.8322L250.617 86.7689L250.282 87.2709L246.35 92.124L245.931 92.626L245.011 93.7974H244.258L245.178 92.626L245.597 92.124L249.445 87.2709L249.78 86.7689L253.629 81.8322L254.047 81.3301L257.896 76.4771L258.231 75.9751L261.829 71.5404H262.749Z" fill="#263238"/>
<path d="M272.874 71.5404L268.941 75.9751L268.439 76.4771L264.256 81.3301L263.754 81.8322L259.486 86.7689L259.068 87.2709L254.801 92.124L254.382 92.626L253.294 93.7974H252.541L253.545 92.626L253.964 92.124L258.231 87.2709L258.649 86.7689L262.917 81.8322L263.335 81.3301L267.603 76.4771L268.021 75.9751L271.87 71.5404H272.874Z" fill="#263238"/>
<path d="M282.915 71.5404L278.647 75.9751L278.145 76.4771L273.543 81.3301L273.041 81.8322L268.356 86.7689L267.854 87.2709L263.252 92.124L262.749 92.626L261.578 93.7974H260.825L261.913 92.626L262.415 92.124L267.017 87.2709L267.519 86.7689L272.121 81.8322L272.623 81.3301L277.309 76.4771L277.727 75.9751L281.994 71.5404H282.915Z" fill="#263238"/>
<path d="M202.087 71.5404L200.748 75.9751L200.58 76.4771L199.074 81.3301L198.907 81.8322L197.485 86.7689L197.317 87.2709L195.811 92.124L195.644 92.626L195.309 93.7974H194.472L194.891 92.626L195.058 92.124L196.48 87.2709L196.648 86.7689L198.07 81.8322L198.238 81.3301L199.66 76.4771L199.827 75.9751L201.166 71.5404H202.087Z" fill="#263238"/>
<path d="M191.962 71.5404L190.958 75.9751L190.874 76.4771L189.787 81.3301L189.703 81.8322L188.615 86.7689L188.448 87.2709L187.36 92.124L187.276 92.626L187.025 93.7974H186.189L186.523 92.626L186.607 92.124L187.611 87.2709L187.778 86.7689L188.783 81.8322L188.95 81.3301L189.954 76.4771L190.038 75.9751L191.042 71.5404H191.962Z" fill="#263238"/>
<path d="M181.838 71.5404L181.252 75.9751L181.168 76.4771L180.499 81.3301L180.415 81.8322L179.746 86.7689L179.662 87.2709L178.993 92.124L178.909 92.626L178.742 93.7974H177.905L178.072 92.626L178.156 92.124L178.825 87.2709L178.909 86.7689L179.579 81.8322V81.3301L180.248 76.4771L180.332 75.9751L180.917 71.5404H181.838Z" fill="#263238"/>
<path d="M171.797 71.5404L171.546 75.9751L171.462 76.4771L171.211 81.3301L171.128 81.8322L170.877 86.7689L170.793 87.2709L170.542 92.124V92.626L170.458 93.7974H169.705V92.626L169.789 92.124L170.04 87.2709V86.7689L170.291 81.8322V81.3301L170.542 76.4771L170.626 75.9751L170.793 71.5404H171.797Z" fill="#263238"/>
<path d="M162.175 93.7974H161.338V92.626V92.124L161.17 87.2709V86.7689L161.003 81.8322V81.3301L160.836 76.4771V75.9751L160.668 71.5404H161.673L161.756 75.9751V76.4771L161.84 81.3301L161.924 81.8322L162.007 86.7689V87.2709L162.091 92.124V92.626L162.175 93.7974Z" fill="#263238"/>
<path d="M153.891 93.7974H153.054L152.971 92.626L152.887 92.124L152.385 87.2709L152.301 86.7689L151.715 81.8322V81.3301L151.13 76.4771V75.9751L150.628 71.5404H151.548L152.05 75.9751V76.4771L152.552 81.3301L152.636 81.8322L153.138 86.7689V87.2709L153.724 92.124V92.626L153.891 93.7974Z" fill="#263238"/>
<path d="M145.607 93.7974H144.771L144.52 92.626L144.436 92.124L143.515 87.2709L143.432 86.7689L142.511 81.8322L142.428 81.3301L141.424 76.4771L141.34 75.9751L140.503 71.5404H141.424L142.26 75.9751L142.344 76.4771L143.264 81.3301L143.348 81.8322L144.269 86.7689L144.352 87.2709L145.273 92.124L145.356 92.626L145.607 93.7974Z" fill="#263238"/>
<path d="M137.324 93.7974H136.487L136.152 92.626L136.069 92.124L134.73 87.2709L134.562 86.7689L133.224 81.8322L133.056 81.3301L131.718 76.4771L131.634 75.9751L130.379 71.5404H131.383L132.554 75.9751L132.638 76.4771L133.977 81.3301L134.144 81.8322L135.399 86.7689L135.567 87.2709L136.822 92.124L136.989 92.626L137.324 93.7974Z" fill="#263238"/>
<path d="M129.04 93.7974H128.203L127.785 92.626L127.618 92.124L125.86 87.2709L125.693 86.7689L123.936 81.8322L123.769 81.3301L122.095 76.4771L121.844 75.9751L120.254 71.5404H121.258L122.765 75.9751L122.932 76.4771L124.689 81.3301L124.856 81.8322L126.53 86.7689L126.697 87.2709L128.454 92.124L128.622 92.626L129.04 93.7974Z" fill="#263238"/>
<path d="M120.756 93.7974H119.92L119.418 92.626L119.167 92.124L117.075 87.2709L116.824 86.7689L114.732 81.8322L114.481 81.3301L112.389 76.4771L112.138 75.9751L110.214 71.5404H111.134L113.059 75.9751L113.31 76.4771L115.401 81.3301L115.569 81.8322L117.661 86.7689L117.912 87.2709L120.003 92.124L120.171 92.626L120.756 93.7974Z" fill="#263238"/>
<path d="M112.473 93.7974H111.636L111.05 92.626L110.799 92.124L108.205 87.2709L107.954 86.7689L105.444 81.8322L105.193 81.3301L102.683 76.4771L102.432 75.9751L100.089 71.5404H101.01L103.269 75.9751L103.603 76.4771L106.03 81.3301L106.281 81.8322L108.791 86.7689L109.042 87.2709L111.552 92.124L111.803 92.626L112.473 93.7974Z" fill="#263238"/>
<path d="M104.106 93.7974H103.352L102.683 92.626L102.348 92.124L99.4198 87.2709L99.0851 86.7689L96.1566 81.8322L95.9055 81.3301L92.977 76.4771L92.6423 75.9751L89.9648 71.5404H90.8852L93.5627 75.9751L93.8974 76.4771L96.7423 81.3301L97.077 81.8322L99.9219 86.7689L100.257 87.2709L103.101 92.124L103.436 92.626L104.106 93.7974Z" fill="#263238"/>
<path d="M95.9055 93.7974H95.0688L94.2321 92.626L93.8974 92.124L90.5505 87.2709L90.2158 86.7689L86.9525 81.8322L86.5342 81.3301L83.2709 76.4771L82.9362 75.9751L79.8403 71.5404H80.7607L83.8566 75.9751L84.1913 76.4771L87.4546 81.3301L87.7893 81.8322L91.0525 86.7689L91.3872 87.2709L94.7341 92.124L95.0688 92.626L95.9055 93.7974Z" fill="#263238"/>
<path d="M87.5382 93.7974H86.7852L85.8648 92.626L85.5301 92.124L81.7648 87.2709L81.3464 86.7689L77.6648 81.8322L77.2465 81.3301L73.5649 76.4771L73.1465 75.9751L69.7159 71.5404H70.72L74.0669 75.9751L74.4853 76.4771L78.1669 81.3301L78.5016 81.8322L82.1832 86.7689L82.6015 87.2709L86.2831 92.124L86.7015 92.626L87.5382 93.7974Z" fill="#263238"/>
<path d="M79.2546 93.7974H78.5016L77.4975 92.626L77.0791 92.124L72.9791 87.2709L72.4771 86.7689L68.3771 81.8322L67.9588 81.3301L63.8588 76.4771L63.4404 75.9751L59.6751 71.5404H60.5955L64.3608 75.9751L64.7792 76.4771L68.8792 81.3301L69.2975 81.8322L73.3138 86.7689L73.8159 87.2709L77.8322 92.124L78.2505 92.626L79.2546 93.7974Z" fill="#263238"/>
<path d="M149.038 317.706C149.038 317.706 218.57 342.222 251.203 330.006C263.837 325.237 273.292 309.506 266.347 296.704C259.905 284.739 222.921 273.862 212.295 267.084C208.948 264.992 208.948 256.039 208.948 256.039L181.838 256.792C181.838 256.792 171.546 271.937 175.981 279.217C176.064 279.384 177.905 281.309 177.989 281.392L164.35 277.794L149.038 317.706Z" fill="#AD6359"/>
<path d="M243.839 281.392C229.28 282.062 216.395 299.968 216.395 299.968C202.17 294.947 181.168 283.149 177.654 281.141C177.068 280.555 176.064 279.384 175.981 279.3C171.546 272.021 181.838 256.876 181.838 256.876L208.948 256.123C208.948 256.123 208.948 265.076 212.295 267.168C218.068 270.849 231.623 275.702 243.839 281.392Z" fill="#363381"/>
<path d="M177.319 280.555C179.244 281.56 181.085 282.731 182.925 283.819C184.766 284.906 186.607 285.994 188.448 286.998C192.213 289.006 196.062 290.931 199.995 292.688C207.86 296.286 215.976 299.382 224.26 301.976C228.862 303.398 233.548 304.737 238.317 305.741C238.401 305.741 238.401 305.908 238.317 305.908C234.886 305.239 231.456 304.57 228.025 303.733C229.866 304.821 231.707 305.908 233.464 306.912C233.548 306.996 233.464 307.08 233.38 307.08C231.372 305.992 229.364 304.904 227.356 303.817C227.272 303.733 227.272 303.649 227.272 303.566C226.686 303.398 226.101 303.315 225.515 303.147C221.248 302.059 217.064 300.721 212.964 299.298C204.848 296.37 196.899 292.855 189.368 288.588C187.276 287.417 185.101 286.162 183.093 284.906C181.085 283.651 178.909 282.396 177.068 280.807C176.985 280.723 177.152 280.472 177.319 280.555Z" fill="#263238"/>
<path d="M101.512 332.935C101.428 335.361 108.373 335.78 111.218 334.106C112.138 333.604 114.648 331.261 117.661 328.333C124.354 321.89 133.558 312.519 133.558 312.519C133.558 312.519 156.652 320.97 176.064 325.488L186.691 286.998L178.407 281.392C167.362 278.045 150.042 272.858 148.369 272.272C148.201 272.188 148.034 272.188 147.95 272.105C137.073 268.423 128.036 265.662 127.116 266.331C124.689 268.256 101.595 330.425 101.512 332.935Z" fill="#5C58ED"/>
<path opacity="0.4" d="M101.512 332.935C101.428 335.361 108.373 335.78 111.218 334.106C112.138 333.604 114.648 331.261 117.661 328.333C124.354 321.89 133.558 312.519 133.558 312.519C133.558 312.519 156.652 320.97 176.064 325.488L186.691 286.998L178.407 281.392C167.362 278.045 150.042 272.858 148.369 272.272C148.201 272.188 148.034 272.188 147.95 272.105C137.073 268.423 128.036 265.662 127.116 266.331C124.689 268.256 101.595 330.425 101.512 332.935Z" fill="white"/>
<path d="M183.595 284.99L172.634 324.651C171.797 324.484 171.044 324.233 170.207 323.982L181.419 283.484L183.595 284.99Z" fill="#5C58ED"/>
<path d="M178.825 281.727L167.279 323.229C166.442 323.061 165.689 322.81 164.852 322.559L176.399 280.807C177.068 280.974 177.654 281.225 178.24 281.392L178.825 281.727Z" fill="#5C58ED"/>
<path d="M101.595 331.931L98.4157 329.337L100.006 324.819L103.938 325.321L101.595 331.931Z" fill="#263238"/>
<path d="M105.11 322.476L101.93 319.798L103.52 315.363L107.536 315.782L105.11 322.476Z" fill="#263238"/>
<path d="M108.708 312.937L105.528 310.343L107.118 305.825L111.05 306.327L108.708 312.937Z" fill="#263238"/>
<path d="M112.222 303.398L109.042 300.804L110.632 296.286L114.565 296.788L112.222 303.398Z" fill="#263238"/>
<path d="M115.736 293.943L112.556 291.266L114.23 286.831L118.163 287.249L115.736 293.943Z" fill="#263238"/>
<path d="M119.334 284.404L116.154 281.811L117.744 277.292L121.677 277.794L119.334 284.404Z" fill="#263238"/>
<path d="M122.848 274.866L119.669 272.272L121.342 267.754L125.275 268.256L122.848 274.866Z" fill="#263238"/>
<path d="M100.926 333.855C101.01 331.345 123.769 267.67 126.111 265.829C127.032 265.076 136.487 267.837 147.866 271.603C147.95 271.603 148.117 271.686 148.201 271.686L133.977 312.937L133.307 312.686C133.307 312.686 113.728 333.186 110.799 334.943C107.954 336.616 100.842 336.282 100.926 333.855Z" fill="#5C58ED"/>
<path d="M103.603 334.023C107.703 323.396 123.267 280.137 126.446 269.26C126.446 269.176 126.446 269.176 126.363 269.26C122.095 279.719 106.867 323.145 103.352 333.939C103.352 334.19 103.52 334.19 103.603 334.023Z" fill="#263238"/>
<path d="M132.22 317.455C134.479 313.523 135.734 308.084 133.893 303.817C133.809 303.649 133.558 303.733 133.558 303.9C133.391 308.502 132.805 312.686 131.718 317.204C131.634 317.539 132.052 317.706 132.22 317.455Z" fill="#263238"/>
<path d="M129.291 319.798C131.55 315.866 132.805 310.427 130.965 306.159C130.881 305.992 130.63 306.076 130.63 306.243C130.462 310.845 129.877 315.112 128.789 319.547C128.705 319.882 129.124 320.133 129.291 319.798Z" fill="#263238"/>
<path d="M126.363 322.225C128.622 318.292 129.877 312.853 128.036 308.586C127.952 308.419 127.701 308.502 127.701 308.67C127.534 313.272 126.948 317.539 125.86 321.974C125.777 322.308 126.195 322.476 126.363 322.225Z" fill="#263238"/>
<path d="M139.499 326.241C142.344 325.404 142.428 321.974 141.591 319.631C140.252 315.949 137.324 312.1 134.228 309.674C134.144 309.59 134.06 309.674 134.06 309.757C133.726 309.674 133.307 309.841 133.307 310.259C133.391 314.192 132.889 318.459 134.144 322.225C134.813 324.4 136.738 326.994 139.499 326.241ZM134.562 316.116C134.479 314.192 134.479 312.268 134.395 310.343C135.818 312.268 137.324 314.192 138.579 316.284C139.164 317.288 139.75 318.292 140.169 319.38C140.838 321.053 141.507 326.91 137.156 324.484C134.73 323.145 134.646 318.459 134.562 316.116Z" fill="#263238"/>
<path d="M139.164 299.298C136.403 302.227 135.065 306.243 133.391 309.841C133.224 310.176 133.558 310.51 133.893 310.594C133.893 310.678 133.977 310.761 134.06 310.678C137.909 309.757 142.093 307.498 144.854 304.653C146.611 302.896 147.95 299.717 145.691 297.792C143.515 296.035 140.754 297.625 139.164 299.298ZM142.846 298.462C147.783 298.127 144.771 303.147 143.432 304.402C142.595 305.155 141.591 305.908 140.671 306.578C138.662 308 136.571 309.088 134.395 310.259C135.316 308.586 136.069 306.745 136.989 305.072C138.077 302.896 140.085 298.713 142.846 298.462Z" fill="#263238"/>
<path opacity="0.1" d="M100.926 333.855C100.842 336.365 107.954 336.7 110.799 334.943C113.644 333.186 133.307 312.686 133.307 312.686L133.977 312.937L145.189 280.388L120.254 279.217C112.807 298.378 100.926 332.014 100.926 333.855Z" fill="black"/>
<path d="M199.576 256.29L153.054 257.545C153.054 257.545 144.269 283.066 148.62 290.345C153.054 297.625 196.313 306.494 196.313 306.494L135.734 288.337L120.422 328.082C120.422 328.082 186.189 352.431 228.778 339.629C242.501 335.529 251.119 318.543 242.166 304.653C232.711 290.011 199.995 270.766 199.995 270.766L199.576 256.29Z" fill="#AD6359"/>
<path d="M153.054 257.545C153.054 257.545 141.256 288.839 151.464 293.106C161.672 297.374 190.038 306.578 190.038 306.578C190.038 306.578 203.593 290.178 228.193 289.258L200.162 270.766L199.66 256.29L153.054 257.545Z" fill="#363381"/>
<path d="M194.221 302.562C193.719 302.98 193.301 303.398 192.883 303.733C186.105 299.968 178.825 297.959 172.383 296.119C164.852 293.943 158.326 292.102 154.644 288.17C152.134 285.409 152.05 278.631 154.56 268.005C155.481 264.072 156.568 260.307 157.489 257.545L159.246 257.462C156.234 266.749 152.134 282.898 155.899 286.998C159.246 290.596 165.521 292.437 172.801 294.445C179.579 296.37 187.109 298.545 194.221 302.562Z" fill="#D0FF3D"/>
<path d="M186.272 295.031L186.858 293.86L187.695 293.107L191.962 296.119L192.297 295.784L193.468 296.621L191.544 298.462L190.372 297.625L190.791 297.207L187.695 295.031L187.193 295.533L186.272 295.031Z" fill="#D0FF3D"/>
<path d="M193.803 291.768C194.305 292.102 194.723 292.437 194.974 292.772C195.225 293.106 195.476 293.358 195.56 293.692C195.644 293.943 195.644 294.194 195.56 294.445C195.476 294.696 195.309 294.947 195.142 295.115C194.891 295.366 194.64 295.449 194.389 295.617C194.138 295.7 193.803 295.784 193.468 295.7C193.134 295.7 192.715 295.533 192.297 295.366C191.878 295.198 191.376 294.947 190.874 294.529C190.372 294.194 189.954 293.86 189.703 293.525C189.452 293.19 189.201 292.939 189.117 292.604C189.034 292.353 189.034 292.102 189.117 291.851C189.201 291.6 189.368 291.349 189.536 291.182C189.787 290.931 190.038 290.847 190.289 290.68C190.54 290.596 190.874 290.513 191.209 290.596C191.544 290.596 191.962 290.764 192.38 290.931C192.799 291.182 193.301 291.433 193.803 291.768ZM193.887 294.278C193.97 294.194 193.97 294.111 193.97 294.027C193.97 293.943 193.803 293.776 193.636 293.692L191.544 292.186C191.376 292.019 191.209 292.019 191.042 292.019C190.874 292.019 190.791 292.019 190.707 292.102C190.623 292.186 190.623 292.27 190.623 292.353C190.623 292.437 190.791 292.604 190.958 292.688L193.05 294.194C193.217 294.362 193.385 294.362 193.552 294.362C193.636 294.362 193.803 294.362 193.887 294.278Z" fill="#D0FF3D"/>
<path d="M151.213 292.855C168.45 299.047 172.383 299.466 193.719 307.08C196.313 308 198.991 308.753 201.585 309.59C204.346 310.427 207.023 311.431 209.784 312.1C209.952 312.1 209.868 312.351 209.701 312.268C207.274 311.515 204.764 310.929 202.338 310.259C199.911 309.59 197.568 308.921 195.225 308.168C194.221 307.833 193.217 307.498 192.129 307.247C192.38 307.415 192.548 307.498 192.799 307.666C193.719 308.251 194.723 308.837 195.644 309.423C197.568 310.678 199.409 312.184 201.417 313.272C201.501 313.355 201.417 313.523 201.333 313.439C199.409 312.184 197.234 311.264 195.225 310.092C194.305 309.506 193.301 308.921 192.38 308.335C191.544 307.833 190.623 307.247 189.87 306.578C186.858 305.657 183.846 304.653 180.834 303.733C171.379 300.553 155.899 295.366 150.795 293.106C150.795 292.939 150.962 292.772 151.213 292.855Z" fill="#263238"/>
<path d="M200.999 271.268C206.27 273.862 211.291 277.125 216.144 280.388C220.913 283.651 225.599 287.082 230.117 290.847C232.376 292.688 234.552 294.696 236.644 296.704C238.652 298.629 240.576 300.637 242.25 302.98C245.178 306.996 246.852 311.933 246.684 317.037C246.601 319.714 246.099 322.392 245.178 324.902C244.174 327.412 242.752 329.588 241.162 331.763C241.078 331.847 240.994 331.763 241.078 331.68C242.668 329.839 243.756 327.496 244.425 325.153C245.094 322.978 245.513 320.635 245.597 318.292C245.68 313.439 244.425 308.753 241.748 304.737C238.652 300.135 234.301 296.37 230.201 292.772C225.933 289.09 221.415 285.576 216.813 282.313C214.219 280.472 211.542 278.715 208.864 276.958C206.187 275.2 203.509 273.527 200.831 271.686C200.664 271.435 200.748 271.1 200.999 271.268Z" fill="#263238"/>
<path d="M187.527 273.694C191.293 272.188 195.393 271.519 199.325 270.933C203.258 270.347 207.274 269.929 211.207 269.762C211.291 269.762 211.291 269.929 211.207 269.929C207.191 270.431 203.174 271.1 199.158 271.937C195.309 272.69 191.46 273.694 187.527 274.196C187.36 274.113 187.36 273.778 187.527 273.694Z" fill="#263238"/>
<path d="M72.8955 343.394C72.8118 345.82 79.7567 346.239 82.6015 344.565C83.5219 344.063 86.0321 341.72 89.0444 338.792C95.7382 332.349 104.942 322.978 104.942 322.978C104.942 322.978 131.718 332.265 146.36 335.947L158.242 295.366C158.242 295.366 122.095 283.651 119.669 282.815C119.501 282.731 119.334 282.731 119.25 282.647C108.373 278.966 99.3361 276.205 98.4157 276.874C96.0729 278.715 72.9791 340.967 72.8955 343.394Z" fill="#5C58ED"/>
<path opacity="0.7" d="M72.8955 343.394C72.8118 345.82 79.7567 346.239 82.6015 344.565C83.5219 344.063 86.0321 341.72 89.0444 338.792C95.7382 332.349 104.942 322.978 104.942 322.978C104.942 322.978 131.718 332.265 146.36 335.947L158.242 295.366C158.242 295.366 122.095 283.651 119.669 282.815C119.501 282.731 119.334 282.731 119.25 282.647C108.373 278.966 99.3361 276.205 98.4157 276.874C96.0729 278.715 72.9791 340.967 72.8955 343.394Z" fill="white"/>
<path d="M154.811 294.194L142.344 334.859C141.591 334.608 140.754 334.441 139.918 334.19L152.468 293.441C153.305 293.692 154.058 294.027 154.811 294.194Z" fill="#5C58ED"/>
<path d="M149.624 292.521L137.073 333.353C136.32 333.102 135.483 332.851 134.646 332.6L147.197 291.684C148.034 292.019 148.871 292.27 149.624 292.521Z" fill="#5C58ED"/>
<path d="M72.8118 342.725L69.7159 340.131L71.3894 335.612L75.322 336.114L72.8118 342.725Z" fill="#263238"/>
<path d="M76.4934 333.269L73.3138 330.592L74.9873 326.157L78.9199 326.659L76.4934 333.269Z" fill="#263238"/>
<path d="M80.0914 323.814L76.9955 321.137L78.6689 316.619L82.6015 317.121L80.0914 323.814Z" fill="#263238"/>
<path d="M83.773 314.276L80.5934 311.682L82.2668 307.164L86.1995 307.666L83.773 314.276Z" fill="#263238"/>
<path d="M87.3709 304.821L84.275 302.143L85.9485 297.708L89.8811 298.211L87.3709 304.821Z" fill="#263238"/>
<path d="M91.0525 295.366L87.8729 292.688L89.5464 288.253L93.479 288.755L91.0525 295.366Z" fill="#263238"/>
<path d="M94.6504 285.911L91.5546 283.233L93.228 278.715L97.1606 279.217L94.6504 285.911Z" fill="#263238"/>
<path d="M72.3098 343.98C72.3934 341.469 95.9892 278.129 98.4994 276.288C99.4198 275.535 108.875 278.464 120.171 282.313C120.254 282.313 120.422 282.396 120.505 282.396L105.695 323.396L105.026 323.145C105.026 323.145 85.1117 343.31 82.2668 345.067C79.2546 346.908 72.2261 346.49 72.3098 343.98Z" fill="#5C58ED"/>
<path d="M74.9873 344.147C79.2546 333.604 95.4035 290.513 98.7504 279.719C98.7504 279.635 98.7504 279.635 98.6668 279.719C94.2321 290.094 78.4179 333.353 74.82 344.147C74.7363 344.314 74.9036 344.398 74.9873 344.147Z" fill="#263238"/>
<path d="M103.771 327.998C106.114 324.065 107.369 318.71 105.612 314.359C105.528 314.192 105.277 314.276 105.277 314.443C105.026 319.045 104.44 323.229 103.269 327.747C103.185 328.082 103.603 328.249 103.771 327.998Z" fill="#263238"/>
<path d="M100.842 330.341C103.185 326.408 104.44 321.053 102.683 316.702C102.599 316.535 102.348 316.619 102.348 316.786C102.097 321.388 101.512 325.572 100.34 330.09C100.257 330.425 100.675 330.676 100.842 330.341Z" fill="#263238"/>
<path d="M97.9137 332.684C100.257 328.751 101.512 323.396 99.7545 319.045C99.6708 318.878 99.4198 318.961 99.4198 319.129C99.1688 323.731 98.5831 327.914 97.4117 332.433C97.2443 332.851 97.7463 333.018 97.9137 332.684Z" fill="#263238"/>
<path d="M110.967 336.867C113.895 336.031 113.979 332.6 113.142 330.341C111.803 326.576 109.042 322.727 105.946 320.3C105.863 320.216 105.779 320.3 105.779 320.384C105.444 320.3 105.026 320.468 105.026 320.886C105.026 324.819 104.524 329.086 105.695 332.851C106.365 335.027 108.205 337.62 110.967 336.867ZM106.197 326.743C106.114 324.819 106.197 322.894 106.114 320.97C107.536 322.978 108.959 324.819 110.214 326.91C110.799 327.914 111.385 328.918 111.803 330.006C112.473 331.68 113.059 337.537 108.708 335.11C106.281 333.772 106.197 329.086 106.197 326.743Z" fill="#263238"/>
<path d="M110.967 310.008C108.205 312.937 106.783 316.953 105.026 320.468C104.859 320.802 105.193 321.137 105.528 321.221C105.528 321.304 105.612 321.388 105.695 321.304C109.544 320.468 113.728 318.208 116.573 315.447C118.33 313.774 119.752 310.594 117.493 308.586C115.401 306.745 112.64 308.335 110.967 310.008ZM114.732 309.255C119.669 308.921 116.573 313.941 115.234 315.196C114.397 315.949 113.393 316.619 112.473 317.288C110.465 318.627 108.289 319.714 106.197 320.886C107.118 319.212 107.954 317.455 108.875 315.698C109.879 313.606 111.971 309.423 114.732 309.255Z" fill="#263238"/>
<path d="M213.382 214.203C224.176 219.809 249.027 236.125 258.566 232.109C268.188 227.925 260.658 216.713 253.796 212.027C248.107 208.178 226.435 205.919 216.395 203.995C206.772 202.238 199.493 207.007 213.382 214.203Z" fill="#AD6359"/>
<path d="M225.682 222.737L238.735 206.421C238.735 206.421 216.144 201.987 209.115 202.572C201.25 203.242 203.258 207.091 208.948 212.027C214.721 216.964 225.682 222.737 225.682 222.737Z" fill="#D0FF3D"/>
<path d="M223.172 220.144C223.507 219.474 227.607 214.37 228.444 213.282C229.364 212.195 232.962 207.676 234.05 206.589C234.133 206.505 234.133 206.589 234.133 206.672C233.297 207.927 229.699 212.446 228.778 213.617C227.941 214.705 223.758 219.725 223.172 220.144Z" fill="#263238"/>
<path opacity="0.1" d="M229.448 217.968L225.599 222.737C225.599 222.737 214.638 216.964 208.948 212.027C204.011 207.76 201.836 204.329 206.354 202.991L229.448 217.968Z" fill="black"/>
<path d="M250.366 230.184C256.558 235.874 263.335 230.854 263.503 224.997C263.921 211.274 254.131 188.766 246.35 177.721C244.09 174.458 223.925 184.248 225.682 188.181C228.025 193.619 237.899 218.554 250.366 230.184Z" fill="#AD6359"/>
<path d="M242.835 221.399C241.58 220.06 240.492 218.554 239.405 217.048C238.317 215.542 237.313 214.035 236.309 212.446C235.305 210.856 234.468 209.266 233.631 207.593C232.795 205.919 232.041 204.246 231.456 202.489C231.958 203.242 232.376 204.078 232.795 204.915C233.213 205.752 233.715 206.505 234.133 207.258C235.054 208.848 235.974 210.438 236.978 211.944L242.835 221.399Z" fill="#263238"/>
<path d="M247.521 182.323C247.354 180.817 246.768 168.266 243.672 162.493C241.999 159.481 236.476 151.532 234.552 152.368C232.711 153.038 233.715 155.632 233.715 155.632C233.715 155.632 231.205 152.117 228.695 153.205C226.184 154.209 228.025 158.393 228.025 158.393C228.025 158.393 225.18 155.046 222.754 156.217C220.327 157.389 222.921 161.322 222.921 161.322C222.921 161.322 220.495 158.142 218.905 159.899C216.98 162.075 222.168 167.513 223.423 171.195C223.674 172.032 227.774 188.432 227.774 188.432L247.521 182.323Z" fill="#AD6359"/>
<path d="M222.921 161.321C226.686 165.338 227.69 167.681 228.778 173.036C228.778 173.119 228.946 173.119 228.946 173.036C228.36 167.764 227.607 164.501 223.088 161.154C222.837 160.987 222.67 161.154 222.921 161.321Z" fill="#263238"/>
<path d="M227.942 158.477C231.539 162.995 232.627 165.589 234.133 171.028C234.133 171.111 234.301 171.111 234.301 171.028C233.213 165.505 232.376 162.326 228.193 158.309C228.025 158.142 227.774 158.226 227.942 158.477Z" fill="#263238"/>
<path d="M233.799 155.799C236.978 160.401 238.233 163.162 239.07 168.685C239.07 168.852 239.321 168.768 239.237 168.685C238.986 162.995 237.397 159.481 233.966 155.715C233.715 155.464 233.548 155.548 233.799 155.799Z" fill="#263238"/>
<path d="M231.205 193.117C231.205 193.117 225.18 189.687 222.837 187.678C220.495 185.587 214.721 174.709 217.064 173.287C219.993 171.53 224.595 177.136 226.435 180.232C226.435 180.232 233.213 176.132 237.397 179.395C241.664 182.742 231.205 193.117 231.205 193.117Z" fill="#AD6359"/>
<path d="M218.068 173.036C221.917 173.37 224.176 177.554 226.184 180.315C226.352 180.566 226.603 180.483 226.686 180.315C229.699 178.809 234.301 177.47 237.397 179.144C237.48 179.227 237.564 179.06 237.48 178.976C234.384 176.717 229.699 177.638 226.519 179.562C224.595 176.717 222.168 172.617 218.068 173.036Z" fill="#263238"/>
<path d="M151.464 259.052C153.138 260.474 214.721 268.674 214.721 268.674L216.562 246.835C216.562 246.835 222.419 242.15 223.507 235.623C225.013 226.921 216.144 207.676 215.307 206.421C212.044 201.401 207.776 199.56 203.091 199.895C183.595 201.317 151.464 259.052 151.464 259.052Z" fill="#D0FF3D"/>
<path d="M207.358 240.141C204.346 239.974 201.333 239.974 198.321 240.225C196.815 240.392 195.309 240.56 193.887 240.811C193.134 240.895 192.38 241.062 191.627 241.146C190.874 241.229 190.038 241.313 189.285 241.229C189.201 241.229 189.201 241.313 189.285 241.313C190.038 241.48 190.707 241.564 191.46 241.648C192.213 241.648 192.883 241.648 193.636 241.564C195.142 241.397 196.648 241.229 198.154 241.062C201.25 240.727 204.262 240.476 207.358 240.392C207.442 240.392 207.442 240.141 207.358 240.141Z" fill="#263238"/>
<path d="M214.303 243.907C211.876 243.321 209.45 242.735 206.94 242.401C205.684 242.233 204.429 242.15 203.174 242.066C202.589 242.066 202.003 241.982 201.417 241.982C200.748 241.982 200.078 242.066 199.409 241.982C199.325 241.982 199.325 242.066 199.409 242.066C199.995 242.15 200.664 242.233 201.25 242.317C201.836 242.401 202.505 242.484 203.091 242.568C204.346 242.735 205.601 242.903 206.772 243.07C209.282 243.321 211.709 243.656 214.219 244.074C214.386 244.158 214.386 243.99 214.303 243.907Z" fill="#263238"/>
<path d="M200.162 218.052L203.342 217.131L205.936 217.382L204.262 232.36L205.433 232.444L205.015 236.46L198.656 235.79L199.074 231.774L200.413 231.942L201.585 220.98L199.911 220.813L200.162 218.052Z" fill="#363381"/>
<path d="M215.976 228.176C215.809 229.933 215.474 231.44 215.14 232.695C214.805 233.95 214.386 234.87 213.884 235.623C213.382 236.376 212.797 236.878 212.211 237.129C211.625 237.464 210.872 237.548 210.203 237.464C209.45 237.38 208.864 237.129 208.278 236.711C207.693 236.293 207.274 235.707 206.94 234.87C206.605 234.033 206.438 233.029 206.354 231.774C206.27 230.519 206.354 229.013 206.521 227.172C206.689 225.415 207.023 223.909 207.358 222.654C207.693 221.399 208.111 220.478 208.613 219.725C209.115 218.972 209.701 218.47 210.287 218.219C210.956 217.968 211.625 217.801 212.295 217.884C213.048 217.968 213.633 218.219 214.219 218.638C214.805 219.056 215.223 219.642 215.558 220.478C215.893 221.315 216.06 222.319 216.144 223.658C216.227 224.829 216.227 226.419 215.976 228.176ZM210.621 233.113C210.956 233.113 211.207 233.029 211.374 232.778C211.542 232.527 211.709 232.025 211.793 231.44L212.629 224.076C212.713 223.407 212.713 222.989 212.546 222.654C212.462 222.319 212.211 222.152 211.876 222.152C211.542 222.152 211.291 222.235 211.123 222.487C210.956 222.738 210.789 223.24 210.705 223.825L209.868 231.188C209.784 231.858 209.784 232.276 209.952 232.611C210.119 232.946 210.37 233.113 210.621 233.113Z" fill="#363381"/>
<path d="M194.389 210.689C182.256 210.772 152.636 214.119 146.026 206.17C139.332 198.138 151.213 191.527 159.413 190.44C166.191 189.603 186.523 197.385 196.397 200.229C205.684 202.907 210.035 210.521 194.389 210.689Z" fill="#AD6359"/>
<path d="M179.579 212.697L175.311 192.197C175.311 192.197 197.485 198.472 203.425 202.238C210.203 206.421 206.605 208.931 199.242 210.689C191.962 212.529 179.579 212.697 179.579 212.697Z" fill="#D0FF3D"/>
<path d="M183.009 211.442C182.925 210.689 181.67 204.329 181.419 202.907C181.085 201.485 179.913 195.878 179.495 194.456C179.495 194.372 179.411 194.372 179.411 194.456C179.579 195.878 180.75 201.652 181.085 203.074C181.336 204.497 182.758 210.772 183.009 211.442C183.009 211.525 182.925 211.525 183.009 211.442Z" fill="#263238"/>
<path d="M179.076 210.019C179.327 210.856 179.579 211.776 179.83 212.613L179.579 212.529C181.252 212.362 182.842 212.195 184.515 212.027C186.189 211.86 187.778 211.693 189.452 211.609L194.389 211.191C196.062 211.023 197.652 210.94 199.325 210.772C197.736 211.191 196.062 211.442 194.472 211.693C192.799 211.944 191.209 212.111 189.536 212.278C187.862 212.446 186.272 212.613 184.599 212.697C182.925 212.864 181.336 212.948 179.662 212.948H179.495V212.78C179.327 211.86 179.16 210.94 179.076 210.019Z" fill="#263238"/>
<path d="M195.142 211.358C195.727 211.274 196.313 211.358 196.899 211.442C197.485 211.525 198.07 211.609 198.656 211.776C198.07 211.944 197.485 211.86 196.899 211.86C196.229 211.693 195.644 211.609 195.142 211.358Z" fill="#263238"/>
<path d="M202.338 201.652C202.254 202.74 205.35 210.856 210.203 211.944C211.793 212.278 214.052 203.827 214.052 203.827L214.386 203.242L218.737 195.042L209.031 184.332C209.115 184.332 202.421 201.233 202.338 201.652Z" fill="#AD6359"/>
<path d="M218.821 195.042L214.47 203.242C212.211 201.652 207.609 197.385 206.856 190.021C208.027 187.093 208.948 184.666 209.115 184.332V184.248L210.37 185.503L218.821 195.042Z" fill="#263238"/>
<path d="M210.119 186.758C207.358 184.834 201.417 182.658 197.066 186.089C187.862 193.368 196.146 208.513 193.134 221.901C189.452 238.05 193.803 248.425 202.338 246.501C211.876 244.325 215.976 231.356 206.438 212.027C200.497 199.978 201.417 192.866 204.095 192.03C206.772 191.193 209.45 192.03 209.45 192.03L210.119 186.758Z" fill="#263238"/>
<path d="M203.342 205.25C204.178 207.258 205.182 209.099 206.103 211.023C207.107 212.948 208.027 214.789 208.948 216.713C209.868 218.637 210.705 220.562 211.374 222.57C212.044 224.578 212.629 226.586 212.964 228.678C213.299 230.77 213.299 232.862 212.797 234.87C212.295 236.878 211.374 238.886 210.203 240.643C209.031 242.401 207.442 243.907 205.517 244.994C204.597 245.497 203.593 245.915 202.505 246.25C202.003 246.417 201.417 246.501 200.915 246.584C200.413 246.668 199.827 246.668 199.325 246.584C200.413 246.835 201.501 246.668 202.589 246.501C203.676 246.25 204.764 245.915 205.768 245.413C206.772 244.911 207.693 244.325 208.529 243.572C209.366 242.819 210.119 241.982 210.789 241.146C211.458 240.225 212.044 239.305 212.546 238.301L212.88 237.548L213.215 236.795C213.382 236.292 213.633 235.707 213.717 235.205C214.303 233.029 214.219 230.77 213.968 228.595C213.299 224.244 211.542 220.227 209.617 216.462C208.613 214.538 207.609 212.697 206.521 210.856C205.433 208.931 204.346 207.091 203.342 205.25Z" fill="#263238"/>
<path d="M208.864 186.005C207.525 185.336 206.187 184.666 204.764 184.332C203.342 183.997 201.836 183.913 200.413 184.248C198.991 184.499 197.652 185.168 196.564 186.005C195.978 186.507 195.476 186.925 194.974 187.511C194.472 188.013 194.054 188.599 193.719 189.185C193.05 190.44 192.548 191.778 192.297 193.201C192.129 194.623 192.046 196.046 192.129 197.552C192.213 200.48 192.715 203.409 193.134 206.421C193.468 209.433 193.803 212.362 193.636 215.458C193.468 218.47 193.05 221.482 192.464 224.411C191.878 227.34 191.209 230.268 191.042 233.197C190.874 234.703 190.958 236.125 191.209 237.631L191.46 238.719C191.544 239.054 191.711 239.388 191.795 239.807L191.962 240.309L192.213 240.811L192.715 241.815C191.125 239.305 190.456 236.209 190.54 233.197C190.623 230.184 191.209 227.256 191.627 224.244C192.046 221.315 192.548 218.386 192.632 215.458C192.715 212.529 192.38 209.601 192.046 206.672C191.711 203.744 191.209 200.731 191.125 197.719C191.042 196.213 191.125 194.707 191.376 193.117C191.627 191.611 192.213 190.105 193.05 188.766C193.468 188.097 193.97 187.511 194.472 186.925C194.974 186.34 195.644 185.921 196.229 185.419C197.485 184.583 198.907 183.913 200.413 183.662C201.919 183.411 203.509 183.579 204.931 183.997C206.354 184.499 207.609 185.252 208.864 186.005Z" fill="#263238"/>
<path d="M212.964 186.005C212.127 185.336 210.538 185.168 209.952 185.587C209.366 186.005 208.111 191.527 208.948 192.699C209.784 193.87 212.044 192.699 212.044 192.699L212.964 186.005Z" fill="#D0FF3D"/>
<path d="M233.966 183.746C231.205 199.895 221.248 200.062 217.817 199.476C214.638 198.974 204.011 196.715 205.015 180.399C206.019 164.083 214.386 160.234 221.666 161.07C228.946 161.907 236.643 167.597 233.966 183.746Z" fill="#AD6359"/>
<path d="M228.276 166.175C228.276 166.175 228.109 168.768 226.77 170.191C223.925 173.119 219.993 170.86 218.152 171.697C216.395 172.534 215.976 175.379 214.303 176.299C212.044 177.554 209.952 176.048 209.282 177.219C208.613 178.307 206.521 181.905 204.848 181.905C203.174 181.905 204.513 153.875 224.427 161.321C224.427 161.321 227.607 161.07 231.121 164.668C235.054 168.601 234.552 177.136 234.552 177.136C234.552 177.136 234.468 176.968 233.966 176.132C233.297 174.96 233.129 174.04 232.627 173.203C231.79 171.948 231.037 172.115 230.201 170.86C228.862 169.103 228.276 166.175 228.276 166.175Z" fill="#263238"/>
<path d="M228.36 165.003C228.36 166.091 228.193 167.262 227.941 168.266C227.69 169.354 227.272 170.358 226.519 171.111C225.766 171.864 224.678 172.115 223.591 172.115C222.503 172.115 221.415 171.864 220.244 171.948C219.658 172.032 219.072 172.115 218.57 172.534C218.068 172.868 217.733 173.37 217.482 173.872C216.897 174.877 216.395 175.797 215.474 176.299C214.554 176.801 213.382 176.968 212.378 176.55C211.374 176.215 210.37 175.546 209.199 175.713C210.37 175.713 211.291 176.383 212.295 176.801C213.382 177.219 214.638 177.219 215.642 176.634C216.729 176.132 217.315 175.044 217.901 174.123C218.152 173.621 218.486 173.203 218.905 172.952C219.323 172.701 219.825 172.534 220.327 172.534C221.415 172.45 222.503 172.701 223.674 172.617C224.26 172.617 224.846 172.534 225.348 172.283C225.85 172.115 226.435 171.781 226.854 171.362C227.69 170.526 228.025 169.354 228.276 168.266C228.36 167.179 228.444 166.091 228.36 165.003Z" fill="#263238"/>
<path d="M228.444 166.007C228.36 167.011 228.36 168.099 228.527 169.103C228.695 170.107 229.113 171.195 229.782 172.032C230.117 172.45 230.619 172.785 231.037 173.036C231.372 173.287 231.79 173.705 231.874 174.123C232.041 174.542 232.125 175.128 232.376 175.63C232.627 176.132 232.962 176.466 233.38 176.801C233.046 176.383 232.711 175.964 232.544 175.546C232.376 175.044 232.293 174.625 232.209 174.04C232.041 173.454 231.707 173.036 231.288 172.701C230.87 172.366 230.452 172.115 230.117 171.697C229.448 170.944 229.113 170.023 228.862 169.103C228.695 168.015 228.527 167.011 228.444 166.007Z" fill="#263238"/>
<path d="M207.358 182.072C207.358 182.072 205.182 176.215 202.589 176.885C199.995 177.554 200.748 185.336 203.174 187.009C205.517 188.683 207.107 186.507 207.107 186.507L207.358 182.072Z" fill="#AD6359"/>
<path d="M202.923 179.06C202.84 179.06 202.84 179.144 202.923 179.06C204.513 180.315 205.099 182.323 205.266 184.248C204.931 183.411 204.262 182.825 203.174 183.244C203.091 183.244 203.174 183.328 203.174 183.328C204.011 183.328 204.513 183.662 204.848 184.332C205.099 184.834 205.182 185.419 205.35 186.005C205.433 186.172 205.684 186.172 205.684 186.005C205.684 186.005 205.684 186.005 205.684 185.921C206.354 183.746 205.35 179.981 202.923 179.06Z" fill="#263238"/>
<path d="M231.623 180.566C231.288 180.315 231.037 180.148 230.703 179.981C230.368 179.73 230.033 179.562 229.615 179.562C229.364 179.562 229.113 179.813 229.113 180.064C229.113 180.65 229.448 180.985 229.866 181.319C230.368 181.654 230.786 181.738 231.372 181.738C231.874 181.57 232.041 180.817 231.623 180.566Z" fill="#263238"/>
<path d="M220.327 178.14C220.662 178.056 221.08 177.972 221.415 177.889C221.833 177.805 222.168 177.638 222.586 177.805C222.837 177.889 222.921 178.223 222.921 178.474C222.754 178.976 222.252 179.227 221.75 179.395C221.164 179.562 220.746 179.479 220.244 179.311C219.742 179.06 219.909 178.307 220.327 178.14Z" fill="#263238"/>
<path d="M219.323 191.862C219.491 192.197 219.658 192.615 220.076 192.782C220.411 192.95 220.913 192.866 221.331 192.866C221.331 192.866 221.415 192.866 221.331 192.95C220.913 193.285 220.244 193.368 219.825 193.117C219.323 192.866 219.24 192.448 219.24 191.946C219.156 191.778 219.24 191.778 219.323 191.862Z" fill="#263238"/>
<path d="M225.599 188.515C225.599 188.515 225.431 190.189 225.264 190.942C225.264 191.025 223.088 190.356 220.662 190.607C220.327 190.607 220.327 190.356 220.829 190.189C221.666 189.938 222.754 189.687 224.762 190.105C224.846 189.938 224.929 187.511 225.013 187.511C225.431 187.595 226.184 188.013 226.686 188.264C227.021 184.75 226.854 181.236 227.272 177.805C227.272 177.721 227.439 177.721 227.523 177.805C227.941 181.487 227.607 185.503 227.356 189.101C227.272 189.603 225.85 188.683 225.599 188.515Z" fill="#263238"/>
<path d="M223.423 190.691C223.423 190.691 222.252 192.364 221.08 192.28C219.742 192.197 219.658 190.44 221.248 190.105C222.084 189.938 223.423 190.691 223.423 190.691Z" fill="#263238"/>
<path d="M222.586 191.527C222.168 191.946 221.582 192.28 221.08 192.197C220.327 192.113 219.993 191.611 220.076 191.109C220.076 191.109 220.076 191.109 220.076 191.025C221.582 190.691 222.252 191.109 222.586 191.527Z" fill="#FF99BA"/>
<path d="M219.993 182.993C219.909 183.076 219.742 183.076 219.658 183.16C219.491 183.244 219.24 183.16 219.072 183.076C218.57 182.742 218.654 181.989 218.905 181.487C218.905 181.403 218.988 181.403 218.988 181.487C219.072 181.905 219.156 182.323 219.491 182.491C219.742 182.574 219.993 182.491 220.244 182.407C220.16 182.491 220.076 182.742 219.993 182.993Z" fill="#263238"/>
<path d="M222.001 184.248C221.917 184.499 221.75 184.75 221.499 184.917C221.248 185.085 220.913 185.168 220.578 185.085C220.244 185.001 219.993 184.75 219.909 184.499C219.825 184.248 219.742 183.913 219.825 183.662C219.825 183.495 219.909 183.327 219.909 183.16C219.993 182.825 220.16 182.491 220.411 182.24C220.327 182.491 220.244 182.742 220.244 182.993C220.244 183.244 220.244 183.495 220.244 183.662C220.244 184.164 220.411 184.583 220.829 184.666C221.164 184.75 221.582 184.499 221.833 184.164C222.084 183.746 222.252 183.327 222.419 182.825C222.252 183.244 222.168 183.746 222.001 184.248Z" fill="#263238"/>
<path d="M230.452 184.834C230.535 184.917 230.619 185.001 230.703 185.085C230.87 185.168 231.037 185.252 231.288 185.252C231.874 185.168 232.125 184.499 232.125 183.83C232.125 183.746 232.125 183.746 232.041 183.83C231.79 184.164 231.539 184.499 231.205 184.499C230.954 184.499 230.786 184.248 230.535 184.081C230.452 184.332 230.452 184.583 230.452 184.834Z" fill="#263238"/>
<path d="M228.109 185.252C228.109 185.503 228.193 185.838 228.36 186.089C228.527 186.34 228.862 186.591 229.113 186.591C229.448 186.674 229.782 186.507 230.033 186.34C230.284 186.089 230.368 185.838 230.452 185.587C230.535 185.419 230.535 185.252 230.535 185.085C230.619 184.75 230.619 184.332 230.452 183.997C230.452 184.248 230.368 184.499 230.284 184.75C230.201 185.001 230.117 185.168 230.033 185.419C229.782 185.838 229.448 186.172 229.113 186.089C228.778 186.005 228.527 185.67 228.444 185.168C228.36 184.666 228.36 184.164 228.444 183.662C228.193 184.164 228.109 184.666 228.109 185.252Z" fill="#263238"/>
<path d="M229.029 195.376C229.531 194.707 229.95 194.038 230.368 193.368C230.786 192.699 231.121 191.946 231.456 191.193C232.041 189.687 232.627 188.181 233.046 186.674C233.464 185.168 233.799 183.579 234.05 181.989C234.217 181.236 234.217 180.399 234.384 179.562C234.468 178.725 234.552 177.972 234.635 177.136C234.635 177.972 234.719 178.725 234.719 179.562C234.635 180.399 234.635 181.152 234.552 181.989C234.384 183.579 234.133 185.252 233.715 186.758C233.297 188.348 232.711 189.854 231.958 191.36C231.121 192.866 230.201 194.289 229.029 195.376Z" fill="#263238"/>
<path d="M153.305 207.927C145.022 209.35 142.093 201.485 145.105 196.464C152.217 184.666 176.232 169.689 188.699 164.668C192.38 163.162 199.242 185.503 195.644 187.846C190.707 191.109 170.123 205.082 153.305 207.927Z" fill="#AD6359"/>
<path d="M164.35 204.664C166.107 204.162 167.864 203.576 169.621 202.907C171.379 202.238 173.052 201.485 174.725 200.732C176.399 199.978 178.072 199.058 179.662 198.138C181.252 197.217 182.842 196.213 184.264 195.042C183.427 195.46 182.674 195.878 181.838 196.297C181.001 196.715 180.164 197.134 179.411 197.552C177.738 198.389 176.148 199.142 174.474 199.978L164.35 204.664Z" fill="#263238"/>
<path d="M182.423 169.856C182.423 169.856 187.444 162.577 190.958 157.975C192.883 155.381 196.648 151.281 198.991 150.026C202.421 148.185 218.068 142.662 219.491 146.428C220.746 149.858 206.772 152.871 206.772 152.871C206.772 152.871 220.662 148.603 221.415 152.954C222.168 157.305 205.936 158.644 205.936 158.644C205.936 158.644 220.327 154.544 220.411 159.23C220.495 162.744 205.768 164.752 205.768 164.752C205.768 164.752 218.152 161.321 218.403 164.919C218.654 168.936 205.182 171.613 205.182 171.613C204.262 180.901 199.911 187.009 193.803 189.017C192.799 189.352 182.423 169.856 182.423 169.856Z" fill="#AD6359"/>
<path d="M201.836 154.042C203.425 153.456 205.099 152.871 206.772 152.452C208.446 152.034 210.119 151.699 211.793 151.448C215.976 150.779 218.654 151.03 218.486 151.03C214.47 151.113 208.529 152.536 206.94 152.954C205.182 153.373 203.509 153.707 201.836 154.042Z" fill="#263238"/>
<path d="M203.258 160.066C205.35 159.397 207.442 158.728 209.533 158.226C211.625 157.724 213.717 157.389 215.809 156.97C215.976 156.97 215.976 157.054 215.809 157.054C213.717 157.556 211.793 158.142 209.617 158.644C207.525 159.146 205.35 159.564 203.258 160.066Z" fill="#263238"/>
<path d="M203.509 165.421C206.689 164.334 210.035 163.748 213.299 163.33C213.466 163.33 213.382 163.413 213.215 163.497C209.952 164.166 207.358 164.668 203.509 165.589C203.509 165.589 203.509 165.505 203.509 165.421Z" fill="#263238"/>
<path d="M54.9895 39.661C57.0813 38.4896 59.4241 38.0712 61.767 38.0712C64.1098 38.0712 66.4527 38.6569 68.6282 39.4937C70.8037 40.4141 72.8955 41.5855 74.7363 43.0079C76.6608 44.4304 78.3342 46.0202 80.0077 47.6936C83.2709 51.1242 86.0321 54.9732 88.5423 58.9058C91.0525 62.9221 93.3117 67.0221 95.3198 71.2894L94.8178 71.2057C99.0851 67.1057 103.771 63.4241 108.708 60.3282C113.728 57.2323 119.083 54.4711 124.94 53.3834C126.446 53.1324 127.869 52.965 129.375 52.8813C130.881 52.8813 132.387 53.0487 133.809 53.467C136.738 54.3038 139.332 55.8099 141.675 57.6507C146.444 61.2486 150.209 65.8507 153.64 70.62C160.501 80.2424 165.689 90.8689 170.291 101.663C174.893 112.456 178.742 123.585 182.256 134.797C178.574 123.669 174.474 112.624 169.872 101.83C167.53 96.475 165.019 91.1199 162.258 85.9322C159.497 80.7444 156.485 75.7241 153.054 70.9547C149.624 66.1853 145.858 61.667 141.173 58.1527C138.83 56.3956 136.32 54.9732 133.558 54.1364C130.797 53.2997 127.869 53.467 125.024 53.9691C119.334 55.0568 113.979 57.7344 109.042 60.8303C104.105 63.9262 99.4198 67.6078 95.2362 71.5404L94.9015 71.8751L94.7341 71.4567C92.726 67.1894 90.5505 63.0894 88.0403 59.0731C85.6138 55.0568 82.8526 51.2916 79.673 47.861C78.0832 46.1875 76.3261 44.514 74.4853 43.0916C72.6445 41.6692 70.6363 40.4141 68.4608 39.4937C66.2853 38.5733 64.0261 37.9875 61.6833 37.9875C59.4241 38.1549 57.0813 38.5733 54.9895 39.661Z" fill="#263238"/>
<path d="M58.2527 37.2345C58.2527 37.8202 58.169 38.3222 58.0854 38.8242C57.7507 40.8324 56.7466 42.6732 55.3241 44.0956C53.567 45.7691 51.2242 46.8569 48.5466 46.8569C48.463 46.8569 48.3793 46.8569 48.2956 46.8569C48.1283 46.8569 48.0446 46.8569 47.8772 46.8569C45.6181 46.6895 43.6099 45.7691 42.0201 44.3467C41.8528 44.1793 41.6018 43.9283 41.4344 43.761C40.012 42.1712 39.0916 40.163 38.9242 37.9875C38.9242 37.7365 38.9242 37.4855 38.9242 37.3181C38.9242 35.2263 39.5936 33.2182 40.765 31.6284C41.3508 30.7916 42.1038 30.1223 42.8569 29.5365C43.1916 29.2855 43.6099 29.0345 44.0283 28.7835C45.3671 28.1141 46.8732 27.6957 48.5466 27.6957C48.5466 27.6957 48.5466 27.6957 48.6303 27.6957C48.7977 27.6957 48.965 27.6957 49.0487 27.6957C51.8935 27.8631 54.4037 29.2019 56.0772 31.2937C56.1609 31.3774 56.2445 31.461 56.2445 31.5447C57.5833 33.0508 58.2527 35.059 58.2527 37.2345Z" fill="#E8FF91"/>
<path d="M57.3323 39.3263C57.1649 38.9079 56.9139 38.5732 56.7466 38.1549C56.3282 37.4018 55.8262 36.7324 55.2405 36.063C55.0731 35.8957 55.0731 35.812 55.0731 35.561C55.1568 34.5569 55.2405 33.5529 55.1568 32.5488C55.1568 32.2141 55.0731 31.8794 54.9895 31.5447C55.3241 31.461 56.2445 31.2937 56.3282 31.2937C56.2445 31.21 56.1609 31.1263 56.1609 31.0427C55.7425 31.1263 55.3241 31.21 54.8221 31.2937C54.7384 31.2937 54.6548 31.2937 54.5711 31.21C53.7344 30.708 52.814 30.2059 51.8936 29.7876C51.5589 29.7039 51.3078 29.6202 50.9731 29.4529C50.8895 29.4529 50.8058 29.3692 50.8058 29.2855C50.3874 28.5325 49.7181 27.9468 49.1323 27.3611C48.965 27.3611 48.7976 27.3611 48.714 27.3611C49.3834 27.9468 49.9691 28.6161 50.4711 29.3692L50.5548 29.4529C50.2201 29.7876 49.8017 30.0386 49.5507 30.3733C49.0487 30.8753 48.5466 31.461 48.0446 31.9631C48.0446 31.9631 47.9609 32.0467 47.8772 32.0467C47.0405 32.1304 46.2875 32.1304 45.4507 32.2141C44.6977 32.2978 44.0283 32.4651 43.2752 32.6325C43.1916 32.6325 43.1079 32.6325 43.0242 32.5488C42.6895 32.0467 42.4385 31.5447 42.1038 31.0427C42.0201 30.8753 42.0201 30.7916 42.1038 30.708C42.6895 29.8712 43.3589 29.2019 44.112 28.5325C43.6936 28.7835 43.3589 28.9508 42.9405 29.2855C42.7732 29.4529 42.6895 29.6202 42.5222 29.7039C42.2712 29.9549 42.1038 30.2896 41.8528 30.5406C41.7691 30.6243 41.6854 30.7916 41.5181 30.8753C41.2671 31.0427 41.0161 31.21 40.8487 31.3774C39.6773 32.9671 39.0079 34.8916 39.0079 37.0671C39.0079 37.3181 39.0079 37.5692 39.0079 37.7365C39.0079 37.6528 39.0916 37.4855 39.0916 37.4018C39.0916 37.3181 39.1753 37.2345 39.1753 37.1508C39.4263 37.1508 39.6773 37.1508 39.9283 37.2345C40.263 37.2345 40.514 37.3181 40.8487 37.3181C40.9324 37.3181 41.0161 37.4018 41.0161 37.4855C41.6854 38.8243 42.4385 40.0793 43.3589 41.2508C43.4426 41.4181 43.6099 41.5855 43.7773 41.6691C43.7773 41.7528 43.8609 41.8365 43.8609 41.8365C43.6936 42.6732 43.6936 43.5099 43.7773 44.3467C43.7773 44.3467 43.7773 44.4303 43.7773 44.514C43.3589 44.3467 43.0242 44.1793 42.6058 44.0956C42.2712 43.9283 41.9365 43.761 41.6018 43.5936C41.7691 43.761 42.0201 44.012 42.1875 44.1793C42.6895 44.4303 43.2752 44.5977 43.7773 44.8487C43.8609 44.8487 43.9446 44.9324 43.9446 44.9324C43.9446 44.9324 43.9446 44.9324 44.0283 44.9324C44.6977 45.5181 45.4507 45.8528 46.2875 46.1038C46.6222 46.1875 46.9568 46.2711 47.2079 46.3548C47.3752 46.3548 47.5426 46.4385 47.7099 46.5222C47.7936 46.5222 47.8772 46.6058 47.9609 46.6895C48.1283 46.6895 48.2119 46.6895 48.3793 46.6895L48.2956 46.6058L48.2119 46.5222C49.1323 46.0201 49.8854 45.3507 50.6385 44.6814C50.7221 44.6814 50.7221 44.5977 50.8058 44.5977C52.1446 44.765 53.316 44.3467 54.4874 43.8446C54.6548 43.761 54.9058 43.6773 55.0731 43.5936C55.1568 43.6773 55.2405 43.8446 55.3241 44.012C56.7466 42.5895 57.7507 40.8324 58.0854 38.7406C57.918 38.9916 57.5833 39.1589 57.3323 39.3263ZM48.0446 41.4181C47.2079 41.5018 46.2875 41.5018 45.6181 41.5855C45.0324 41.5855 44.614 41.5855 44.112 41.5855C44.0283 41.5855 43.9446 41.5018 43.8609 41.5018C42.8569 40.3304 42.0201 38.9916 41.3508 37.6528C41.3508 37.5692 41.2671 37.4855 41.3508 37.4018C41.6854 36.1467 42.0201 34.9753 42.6895 33.8039C43.1079 33.1345 43.1079 33.1345 43.8609 32.9671C45.116 32.7161 46.3711 32.6325 47.5426 32.5488C47.7099 32.5488 47.7936 32.5488 47.8772 32.7161C48.714 33.9712 49.5507 35.2263 50.4711 36.4814C50.5548 36.5651 50.5548 36.7324 50.5548 36.8161C50.2201 37.9038 49.7181 38.9079 49.1323 39.912C48.8813 40.414 48.5466 40.8324 48.2956 41.3344C48.2956 41.4181 48.2119 41.4181 48.0446 41.4181ZM56.9139 40.0793C56.4956 41.1671 56.0772 42.1712 55.4915 43.0916C55.4078 43.1752 55.3241 43.2589 55.1568 43.3426C54.2364 43.8446 53.316 44.1793 52.3119 44.3467C51.8936 44.4303 51.4752 44.4303 51.0568 44.4303C50.8895 44.4303 50.8058 44.3467 50.7221 44.263C50.0527 43.5936 49.5507 42.8406 49.0487 42.0875C48.8813 41.8365 48.714 41.6691 48.6303 41.4181C48.965 40.7487 49.3834 40.163 49.7181 39.4936C50.2201 38.6569 50.6385 37.7365 50.8895 36.7324C50.9731 36.5651 51.0568 36.5651 51.1405 36.5651C52.2282 36.3977 53.316 36.2304 54.4037 36.063C54.6548 35.9794 54.8221 36.063 55.0731 36.3141C55.7425 37.0671 56.3282 37.9038 56.8303 38.8243C56.9976 39.2426 57.0813 39.661 56.9139 40.0793Z" fill="#263238"/>
</g>
<defs>
<clipPath id="clip0_420_7824">
<rect width="339.963" height="349" fill="white" transform="translate(0.518341)"/>
</clipPath>
</defs>
</svg>
