<svg width="101" height="100" viewBox="0 0 101 100" fill="none" xmlns="http://www.w3.org/2000/svg">
<circle cx="50.5" cy="50" r="49.5" fill="white" stroke="#5E57F2"/>
<path d="M50.5 47.25C43.9242 47.25 38.5481 41.8765 38.5481 35.2982H37.0481C37.0481 42.7052 43.096 48.75 50.5 48.75V47.25ZM38.5481 35.2982C38.5481 28.7124 43.9316 23.25 50.5 23.25V21.75C43.0887 21.75 37.0481 27.8986 37.0481 35.2982H38.5481ZM50.5 23.25C57.0757 23.25 62.4518 28.6235 62.4518 35.2018H63.9518C63.9518 27.7948 57.9039 21.75 50.5 21.75V23.25ZM62.4518 35.2018C62.4518 41.7876 57.0684 47.25 50.5 47.25V48.75C57.9113 48.75 63.9518 42.6014 63.9518 35.2018H62.4518ZM70.3333 72.75H30.6666V74.25H70.3333V72.75ZM30.6666 72.75C29.5225 72.75 28.5833 71.8108 28.5833 70.6667H27.0833C27.0833 72.6392 28.6941 74.25 30.6666 74.25V72.75ZM28.5833 70.6667V67.8333H27.0833V70.6667H28.5833ZM28.5833 67.8333C28.5833 62.0142 33.3475 57.25 39.1666 57.25V55.75C32.5191 55.75 27.0833 61.1858 27.0833 67.8333H28.5833ZM39.1666 57.25H61.8333V55.75H39.1666V57.25ZM61.8333 57.25C67.6524 57.25 72.4166 62.0142 72.4166 67.8333H73.9166C73.9166 61.1858 68.4809 55.75 61.8333 55.75V57.25ZM72.4166 67.8333V70.6667H73.9166V67.8333H72.4166ZM72.4166 70.6667C72.4166 71.8108 71.4774 72.75 70.3333 72.75V74.25C72.3059 74.25 73.9166 72.6392 73.9166 70.6667H72.4166Z" fill="#5E57F2"/>
<path fill-rule="evenodd" clip-rule="evenodd" d="M68.5 84C68.5 75.1634 75.6634 68 84.5 68C93.3366 68 100.5 75.1634 100.5 84C100.5 92.8366 93.3366 100 84.5 100C75.6634 100 68.5 92.8366 68.5 84Z" fill="white"/>
<path d="M87.3792 82.1678C88.9362 83.7248 88.9362 86.2492 87.3792 87.8062C85.8222 89.3633 83.2977 89.3633 81.7407 87.8062C80.1837 86.2492 80.1837 83.7248 81.7407 82.1678C83.2977 80.6107 85.8222 80.6107 87.3792 82.1678" stroke="#5E57F2" stroke-width="1.5" stroke-linecap="round" stroke-linejoin="round"/>
<path fill-rule="evenodd" clip-rule="evenodd" d="M93.5 81V90C93.5 91.105 92.605 92 91.5 92H77.5C76.395 92 75.5 91.105 75.5 90V81C75.5 79.895 76.395 79 77.5 79H79.5L80.962 76.496C81.141 76.189 81.47 76 81.826 76H87.13C87.481 76 87.806 76.184 87.987 76.484L89.5 79H91.5C92.605 79 93.5 79.895 93.5 81Z" stroke="#5E57F2" stroke-width="1.5" stroke-linecap="round" stroke-linejoin="round"/>
<rect x="90.5" y="76" width="7" height="7" fill="#F6FFF8"/>
<path d="M94.5 77V81" stroke="#5E57F2" stroke-linecap="round"/>
<path d="M92.5 79H96.5" stroke="#5E57F2" stroke-linecap="round"/>
</svg>
