<svg width="259" height="168" viewBox="0 0 259 168" fill="none" xmlns="http://www.w3.org/2000/svg">
<g clip-path="url(#clip0_736_102346)">
<path d="M-344.469 291.278C-329.009 350.306 -234.844 421.515 -130.139 376.073C-17.235 327.117 -21.4513 141.364 124.246 62.6594" stroke="#263238" strokeWidth="1.7568" stroke-miterlimit="10" stroke-dasharray="9.39 9.39"/>
<path d="M129.399 60.0828C130.805 59.38 132.21 58.6773 133.616 57.9746" stroke="#263238" strokeWidth="1.7568" stroke-miterlimit="10"/>
<path d="M124.48 32.4425L109.958 72.7318L140.643 48.8393L258.7 5.97339L124.48 32.4425Z" fill="#FE4E40"/>
<path opacity="0.1" d="M124.48 32.4425L109.958 72.7318L140.643 48.8393L258.7 5.97339L124.48 32.4425Z" fill="black"/>
<path d="M144.625 58.2092L109.958 72.7321L140.643 48.8396L144.625 58.2092Z" fill="#263238"/>
<path d="M140.643 48.8393L258.7 5.97339L161.959 100.372L140.643 48.8393Z" fill="#FE4E40"/>
<path d="M124.48 32.4427L75.5242 0.820312L258.7 5.9736L124.48 32.4427Z" fill="#FE4E40"/>
</g>
<defs>
<clipPath id="clip0_736_102346">
<rect width="258.4" height="166.359" fill="white" transform="translate(0.300003 0.820312)"/>
</clipPath>
</defs>
</svg>
