<svg width="375" height="813" viewBox="0 0 375 813" fill="none" xmlns="http://www.w3.org/2000/svg">
<rect width="375" height="812" fill="white"/>
<g clip-path="url(#clip0_565_8536)">
<path d="M0.1 668.6C0.1 667.7 0 666.8 0 666C0 578.9 0 491.9 0 404.8C0 403.9 0.1 403 0.1 402.2C53.2 402.5 106.4 402.8 159.5 403.1C179.6 403.2 199.6 403.3 219.7 403.4C221.1 403.4 222.3 403.6 223.4 404.5C258.1 433.8 292.9 463 327.6 492.2C328 492.5 328.6 492.8 328.6 493.5C328.2 494 327.8 494.6 327.3 495.1C279 551.5 230.7 607.9 182.5 664.4C181.4 665.7 180.3 666.2 178.7 666.2C148 666.6 117.3 667 86.6 667.4C57.8 667.9 29 668.2 0.1 668.6Z" fill="#BDFF05"/>
<path d="M375 2.49993V133C375 133.4 375 133.8 374.9 134.2C374.8 134.2 374.8 134.2 374.7 134.3C374 134.5 373.4 135 372.8 135.4C368.9 137.9 365 140.3 361 142.8C320.5 168.4 280 194 239.6 219.7C238 220.7 237 220.7 235.4 219.7C165.1 176.4 94.6 133.1 24.2 89.7999C16.2 84.8999 8.1 79.9999 0.1 75.0999C0.1 74.1999 1.73226e-07 73.2999 1.73226e-07 72.4999C1.73226e-07 50.0999 1.73226e-07 27.8999 1.73226e-07 5.59993V2.89993C1.73226e-07 -0.200073 -0.3 -7.33088e-05 2.8 -7.33088e-05H372.3C372.8 -7.33088e-05 373.3 -7.33088e-05 373.7 -7.33088e-05C374.6 -7.33088e-05 375 0.299927 375 1.19993C375 1.69993 375 2.09993 375 2.49993Z" fill="#D3FF58"/>
<path d="M0.1 400.3C0.1 399.4 0 398.5 0 397.7C0 291.8 0 185.9 0 79.8999C0 78.9999 0.1 78.0999 0.1 77.2999C0.4 77.3999 0.7 77.5999 0.9 77.6999C44.2 104.3 87.6 131 130.9 157.6C165.4 178.8 199.9 200 234.4 221.2C235.9 222.1 236.5 223 236.3 224.8C235.7 231.3 235.2 237.9 234.7 244.4C233.7 256.8 232.6 269.2 231.5 281.7C230.6 292.1 229.8 302.6 228.9 313C227.7 327.2 226.5 341.3 225.3 355.5C224.3 368 223.2 380.5 222.2 393C222 395.4 221.7 397.8 221.5 400.2C221.4 401.2 221 401.6 220 401.5C218.5 401.4 217 401.5 215.4 401.4C164.4 401.1 113.5 400.9 62.5 400.6C41.8 400.6 21 400.4 0.1 400.3Z" fill="#D3FF58"/>
<path d="M375 811.1C375 811.2 375 811.3 375 811.3C375 811.6 374.9 811.7 374.8 811.9C374.4 812.2 373.7 812.1 372 812.1H257.2C256.4 812.1 255.6 812 254.8 812C254.4 811.1 254 810.1 253.5 809.2C230.3 762.7 207 716.2 183.8 669.7C182.4 667 182.2 667.8 184.4 665.2C218.3 625.6 252.2 586 286 546.4C300.5 529.5 314.9 512.6 329.3 495.7C330.3 494.6 331.2 494 332.8 494.2C335.9 494.5 339 494.6 342.1 494.7C353 495.3 363.9 495.8 374.7 496.4C374.8 496.4 374.8 496.4 374.9 496.4C374.9 497.4 375 498.3 375 499.3C375 602.5 375 705.7 375 809C375 810 375 810.7 375 811.1Z" fill="#BDFF05"/>
<path d="M375 139C375 256.6 375 374.1 375 491.7C375 492.7 374.9 493.6 374.9 494.6C374.8 494.6 374.8 494.6 374.7 494.6C360.7 493.9 346.7 493.1 332.8 492.4C331.3 492.3 330.3 491.9 329.2 491C319.9 483.1 310.5 475.2 301.1 467.4C275.8 446.1 250.5 424.8 225.1 403.5C223.9 402.5 223.4 401.4 223.6 399.8C224.1 395 224.5 390.2 224.9 385.5C225.8 375.1 226.6 364.8 227.5 354.4C228.6 341.5 229.7 328.6 230.8 315.7C231.5 307.6 232.2 299.5 232.8 291.3C233.9 278.6 234.9 265.8 236 253.1C236.8 243.4 237.6 233.7 238.4 224C238.5 223 238.8 222.4 239.7 221.9C240.3 221.6 240.8 221.2 241.3 220.9C279.5 196.7 317.7 172.6 355.9 148.4C362.2 144.4 368.5 140.5 374.8 136.6C374.9 136.6 374.9 136.5 375 136.5C375 137.2 375 138.1 375 139Z" fill="#D3FF58"/>
<path d="M252.7 812.1C251.8 812.1 250.9 812.2 250.1 812.2C167.8 812.2 85.5 812.2 3.2 812.2C-0.4 812.2 0.0999997 812.6 0.0999997 809C0.0999997 763.8 0.0999997 718.6 0.0999997 673.5C0.0999997 672.5 0.2 671.6 0.2 670.6C31.1 670.2 62 669.8 92.9 669.4C117.4 669.1 141.9 668.7 166.5 668.4C170.7 668.3 175 668.4 179.2 668.2C180.5 668.2 181.3 668.5 181.7 669.8C181.8 670.1 182 670.4 182.1 670.7C202.4 711.4 222.7 752 243 792.7C246.3 799 249.5 805.6 252.7 812.1Z" fill="#BDFF05"/>
<path d="M374.9 496.5C374.8 496.5 374.8 496.5 374.7 496.5C363.8 495.9 353 495.4 342.1 494.8C339 494.6 335.9 494.6 332.8 494.3C331.3 494.2 330.3 494.7 329.3 495.8C314.9 512.7 300.4 529.6 286 546.5C252.1 586.1 218.2 625.7 184.4 665.3C182.2 667.9 182.5 667.1 183.8 669.8C207 716.3 230.3 762.8 253.5 809.3C254 810.2 254.3 811.2 254.8 812.1C254.1 812.3 253.4 812.2 252.7 812.1C249.5 805.6 246.3 799.1 243 792.6C222.7 751.9 202.4 711.3 182.1 670.6C182 670.3 181.8 670 181.7 669.7C181.3 668.4 180.5 668.1 179.2 668.1C175 668.2 170.7 668.2 166.5 668.3C142 668.6 117.4 668.9 92.9 669.3C62 669.7 31.1 670.1 0.200004 670.5C0.100004 669.9 0.100004 669.2 0.200004 668.6C29.1 668.2 57.9 667.9 86.7 667.5C117.4 667.1 148.1 666.6 178.8 666.3C180.5 666.3 181.6 665.8 182.6 664.5C230.9 608 279.2 551.6 327.4 495.2C327.9 494.7 328.3 494.1 328.7 493.6C328.6 492.8 328.1 492.6 327.7 492.3C293 463.1 258.2 433.9 223.5 404.6C222.3 403.6 221.1 403.5 219.8 403.5C199.7 403.4 179.7 403.3 159.6 403.2C106.5 402.9 53.3 402.6 0.200004 402.3C0.100004 401.7 3.74764e-06 401 0.200004 400.4C21.1 400.5 41.9 400.6 62.8 400.8C113.8 401.1 164.7 401.3 215.7 401.6C217.2 401.6 218.7 401.6 220.3 401.7C221.3 401.7 221.7 401.4 221.8 400.4C222 398 222.2 395.6 222.4 393.2C223.4 380.7 224.4 368.2 225.5 355.7C226.7 341.5 227.9 327.3 229.1 313.2C230 302.8 230.8 292.3 231.7 281.9C232.7 269.5 233.8 257 234.9 244.6C235.5 238.1 235.9 231.5 236.5 225C236.7 223.2 236.1 222.3 234.6 221.4C200.1 200.2 165.6 179 131.1 157.8C87.7 131 44.3 104.4 1 77.8C0.700004 77.6 0.400004 77.5 0.200004 77.4C3.74764e-06 76.6 0.100004 75.9 0.200004 75.2C8.2 80.1 16.3 85 24.3 89.9C94.7 133.2 165.1 176.4 235.5 219.7C237.1 220.7 238.2 220.6 239.7 219.7C280.2 194 320.6 168.4 361.1 142.8C365 140.3 368.9 137.8 372.9 135.4C373.5 135 374.1 134.5 374.8 134.3C374.9 134.3 374.9 134.3 375 134.2C375.1 134.9 375.1 135.7 375 136.4C374.9 136.4 374.9 136.5 374.8 136.5C368.5 140.4 362.2 144.4 355.9 148.3C317.7 172.5 279.5 196.6 241.3 220.8C240.8 221.2 240.2 221.5 239.7 221.8C238.9 222.3 238.5 222.9 238.4 223.9C237.6 233.6 236.8 243.3 236 253C234.9 265.8 233.9 278.5 232.8 291.2C232.1 299.3 231.4 307.4 230.8 315.6C229.7 328.5 228.6 341.4 227.5 354.3C226.6 364.7 225.8 375 224.9 385.4C224.5 390.2 224.1 395 223.6 399.7C223.4 401.3 223.9 402.3 225.1 403.4C250.5 424.7 275.8 446 301.1 467.3C310.5 475.2 319.8 483 329.2 490.9C330.3 491.8 331.4 492.3 332.8 492.3C346.8 493 360.8 493.7 374.7 494.5C374.8 494.5 374.8 494.5 374.9 494.5C375.1 495.2 375.1 495.9 374.9 496.5Z" fill="#101404"/>
</g>
<defs>
<clipPath id="clip0_565_8536">
<rect width="375" height="812.2" fill="white"/>
</clipPath>
</defs>
</svg>
