<svg width="20" height="20" viewBox="0 0 20 20" fill="none" xmlns="http://www.w3.org/2000/svg">
<g clip-path="url(#clip0_715_5144)">
<path d="M9.99998 1.66675V3.33341M17.5 4.16675L16.25 5.41675M2.49998 4.16675L3.74998 5.41675M10 18.3334C13.0035 18.3334 15.6778 16.3788 17.3977 14.7325C18.6452 13.5382 18.6452 11.4619 17.3977 10.2677C15.6778 8.62134 13.0035 6.66675 10 6.66675C6.9965 6.66675 4.32218 8.62134 2.60234 10.2677C1.35478 11.4619 1.35478 13.5382 2.60234 14.7325C4.32218 16.3788 6.9965 18.3334 10 18.3334ZM12.5 12.5001C12.5 13.8808 11.3807 15.0001 9.99998 15.0001C8.61927 15.0001 7.49998 13.8808 7.49998 12.5001C7.49998 11.1194 8.61927 10.0001 9.99998 10.0001C11.3807 10.0001 12.5 11.1194 12.5 12.5001Z" stroke="#141B20" strokeWidth="1.5" strokeLinecap="round"/>
</g>
<defs>
<clipPath id="clip0_715_5144">
<rect width="20" height="20" fill="white"/>
</clipPath>
</defs>
</svg>
