<svg width="21" height="21" viewBox="0 0 21 21" fill="none" xmlns="http://www.w3.org/2000/svg">
<path id="Vector" d="M10.2663 0.321533C4.71858 0.321533 0.216064 4.82405 0.216064 10.3718C0.216064 15.9195 4.71858 20.422 10.2663 20.422C15.8141 20.422 20.3166 15.9195 20.3166 10.3718C20.3166 4.82405 15.8141 0.321533 10.2663 0.321533ZM11.2713 3.63812L12.6281 2.68334C14.4573 3.24616 16.0151 4.45219 17.0301 6.04013L16.6382 7.38686L15.2814 7.84917L11.2713 5.04515L11.2713 3.63812ZM7.90451 2.68334L9.26129 3.63812L9.26129 5.04515L5.25124 7.84917L3.89446 7.38686L3.5025 6.04013C4.51757 4.46224 6.07536 3.25621 7.90451 2.68334ZM5.32159 15.5075L4.17586 15.608C2.95978 14.2009 2.22611 12.3718 2.22611 10.3718C2.22611 10.2512 2.23617 10.1406 2.24622 10.02L3.25124 9.28636L4.63818 9.76877L6.10551 14.1306L5.32159 15.5075ZM12.7789 17.9999C11.9849 18.2612 11.1407 18.412 10.2663 18.412C9.39195 18.412 8.54772 18.2612 7.75375 17.9999L7.06029 16.5024L7.7035 15.3969L12.8392 15.3969L13.4824 16.5125L12.7789 17.9999ZM12.5477 13.3869L7.98491 13.3869L6.62813 9.34666L10.2663 6.79389L13.9146 9.34666L12.5477 13.3869ZM16.3568 15.608L15.211 15.5075L14.4171 14.1306L15.8844 9.76877L17.2814 9.29641L18.2864 10.0301C18.2965 10.1406 18.3065 10.2512 18.3065 10.3718C18.3065 12.3718 17.5729 14.2009 16.3568 15.608Z" fill="white"/>
</svg>
