<svg width="101" height="19" viewBox="0 0 101 19" fill="none" xmlns="http://www.w3.org/2000/svg">
<path d="M32.0049 3.61377C31.2573 2.67917 30.2811 1.95225 29.1388 1.43302C27.9757 0.913794 26.6673 0.643799 25.1719 0.643799C23.8219 0.643799 22.5966 0.872255 21.475 1.30841C20.3535 1.74456 19.3774 2.36763 18.5466 3.15685C17.7158 3.94608 17.072 4.90145 16.6151 5.98145C16.1581 7.08221 15.9297 8.26605 15.9297 9.5745C15.9297 11.3814 16.3243 12.9391 17.0928 14.2891C17.8612 15.6391 18.962 16.6775 20.3743 17.4252C21.7866 18.1729 23.4066 18.5467 25.2758 18.5467C26.1065 18.5467 26.9996 18.4637 27.9134 18.2767C28.8273 18.0898 29.6996 17.8406 30.5303 17.5291C31.3611 17.2175 32.0257 16.8644 32.5449 16.4698L30.8419 12.7937C30.0319 13.3337 29.1596 13.7283 28.2665 13.9983C27.3734 14.2683 26.4181 14.3929 25.4419 14.3929C24.5489 14.3929 23.7596 14.2475 23.095 13.9775C22.4304 13.6868 21.8904 13.3129 21.4958 12.8145C21.1012 12.316 20.9143 11.7345 20.8935 11.0699H33.5834C33.8534 9.59526 33.8326 8.22451 33.5419 6.95759C33.2926 5.64914 32.7734 4.54838 32.0049 3.61377ZM21.2466 7.37298C21.3296 6.52144 21.7243 5.83606 22.4096 5.3376C23.095 4.83915 23.9673 4.56915 25.0265 4.56915C26.065 4.56915 26.8958 4.81838 27.4981 5.3376C28.1004 5.83606 28.4119 6.52144 28.4327 7.37298H21.2466Z" fill="white"/>
<path d="M45.5262 0.602112C44.5501 0.602112 43.6362 0.809801 42.7847 1.20441C41.9539 1.59903 41.2686 2.24287 40.7701 3.11517V1.14211H35.3286V18.0481H40.7701V9.44974C40.7701 8.30744 41.1024 7.45591 41.767 6.87437C42.4316 6.29284 43.2832 6.00207 44.3009 6.00207C44.7162 6.00207 45.1316 6.04361 45.5678 6.12669C45.9831 6.20976 46.3778 6.31361 46.7516 6.45899L47.3954 0.851343C47.1047 0.789036 46.8139 0.747495 46.5231 0.705957C46.2324 0.622881 45.9001 0.602112 45.5262 0.602112Z" fill="white"/>
<path d="M61.5596 9.11762C60.5212 8.26609 58.7766 7.60148 56.305 7.10302C55.0797 6.83302 54.2697 6.60456 53.8543 6.39687C53.4389 6.18918 53.2312 5.87764 53.2312 5.46226C53.2312 5.04688 53.4597 4.73534 53.9374 4.50688C54.4151 4.27842 55.0174 4.15381 55.7858 4.15381C56.4089 4.15381 57.032 4.23689 57.6758 4.38228C58.3196 4.52766 58.9427 4.73535 59.5658 5.00535C60.1681 5.27535 60.7081 5.58688 61.165 5.96072L62.8473 2.11844C61.9542 1.45383 60.8742 0.934604 59.6281 0.560761C58.3819 0.186918 57.0527 0 55.6404 0C54.2074 0 52.9197 0.228459 51.8189 0.706147C50.7182 1.18384 49.8459 1.84845 49.2228 2.67921C48.5997 3.53074 48.2882 4.52765 48.2882 5.64918C48.2882 7.2484 48.8282 8.49455 49.9082 9.40839C50.9882 10.3222 52.712 10.9661 55.0381 11.3607C56.2843 11.5891 57.115 11.7968 57.5304 11.9837C57.9458 12.1707 58.1743 12.4822 58.1743 12.8768C58.1743 13.3337 57.9458 13.6868 57.4681 13.936C57.0112 14.1853 56.3258 14.3099 55.4327 14.3099C54.4774 14.3099 53.4389 14.1437 52.3589 13.7907C51.2789 13.4376 50.2612 12.9807 49.3266 12.3784L47.582 16.1999C48.5374 16.9268 49.7005 17.4876 51.0297 17.8822C52.3589 18.2768 53.8335 18.4845 55.4535 18.4845C56.9696 18.4845 58.2989 18.2352 59.4412 17.7576C60.5835 17.2799 61.4765 16.5945 62.1204 15.7222C62.7642 14.8499 63.0758 13.8114 63.0758 12.6484C63.1173 11.153 62.5981 9.96915 61.5596 9.11762Z" fill="white"/>
<path d="M75.7655 10.4469C75.7655 11.0699 75.6409 11.6307 75.3916 12.1084C75.1424 12.5861 74.7893 12.9599 74.3324 13.2299C73.8755 13.4999 73.3355 13.6453 72.7332 13.6453C71.7986 13.6453 71.0717 13.3753 70.594 12.8353C70.0955 12.2953 69.8463 11.5684 69.8463 10.6338V1.1631H64.4048V11.4438C64.4048 12.8561 64.654 14.1022 65.1525 15.1615C65.6509 16.2207 66.3986 17.0514 67.3955 17.6537C68.3924 18.256 69.6801 18.5468 71.217 18.5468C72.5463 18.5468 73.6263 18.3184 74.457 17.8614C75.2878 17.4045 75.9732 16.8645 76.5132 16.2622V18.3184H81.207V1.14233H75.7655V10.4469Z" fill="white"/>
<path d="M12.3576 1.14233L6.6461 11.0492L4.9015 1.14233H0L2.90767 17.5914L2.99075 18.173H7.47687L17.3006 1.14233H12.3576Z" fill="white"/>
<path d="M90.5742 13.4171L99.3388 6.21027L99.4426 1.51646L99.4842 1.37108H99.4634V1.24647L99.318 1.35031L92.2773 1.16339H83.6581L82.8481 5.98181L93.3573 5.87797L83.5543 13.3133L83.0766 13.7079L83.8035 18.0902H84.3851L100.855 18.2563H101L100.19 13.4379L90.5742 13.4171Z" fill="white"/>
</svg>
